<svg xmlns="http://www.w3.org/2000/svg" width="147.993" height="41.816" viewBox="0 0 147.993 41.816">
  <g id="Layer_2" data-name="Layer 2" transform="translate(0.001 -0.006)">
    <g id="Layer_1" data-name="Layer 1" transform="translate(-0.001 0.006)">
      <g id="evre_logo" data-name="evre logo">
        <path id="Path_6908" data-name="Path 6908" d="M94.764,5.748A7.858,7.858,0,0,1,95,3.857a3.558,3.558,0,0,1,2.987-2.81,8.107,8.107,0,0,1,1.8-.177h14.306a29.546,29.546,0,0,1,3.776.25,12.156,12.156,0,0,1,4.291,1.352,10.047,10.047,0,0,1,4.6,5.112,11.456,11.456,0,0,1,.805,4.291,12.3,12.3,0,0,1-.628,4.154,8.855,8.855,0,0,1-3.22,4.323,15.433,15.433,0,0,1-5.016,2.359l-1.248.322a2,2,0,0,0,.539.354,16.609,16.609,0,0,1,3.333,2.858,37.218,37.218,0,0,1,4.83,7,26.954,26.954,0,0,1,1.876,4.21,6.442,6.442,0,0,1,.266,1.1,2.1,2.1,0,0,1-.169,1.063,3.639,3.639,0,0,1-2.947,2.3,4.726,4.726,0,0,1-2.319-.177,3.43,3.43,0,0,1-1.159-.676,7.978,7.978,0,0,1-1.554-1.811c-1.9-3.011-3.671-6.094-5.531-9.129a21.093,21.093,0,0,0-2.995-4.025,6.851,6.851,0,0,0-4.283-2.029c-1.377-.145-2.753-.04-4.138-.081-.209,0-.29.081-.274.282a2.527,2.527,0,0,1,0,.354v12.43a7.012,7.012,0,0,1-.394,2.415,3.615,3.615,0,0,1-2.955,2.415,4.516,4.516,0,0,1-2.359-.217,3.566,3.566,0,0,1-2.206-2.528,6.843,6.843,0,0,1-.274-2.061c.121-.121.072-.274.072-.419V6.159C94.836,6.022,94.885,5.869,94.764,5.748ZM103,12.543v5.185c0,.394,0,.411.37.4,2.81,0,5.635.081,8.413-.064a19.208,19.208,0,0,0,2.633-.282,7.414,7.414,0,0,0,3.075-1.191,4.267,4.267,0,0,0,1.61-2.415,7.527,7.527,0,0,0,.169-2.206,4.138,4.138,0,0,0-.354-1.61A5.1,5.1,0,0,0,114.7,7.214a28.419,28.419,0,0,0-4.3-.266h-7.189c-.217,0-.29.089-.274.282a1.833,1.833,0,0,1,0,.306Z" transform="translate(-18.468 -0.174)" fill="#a2eaa0"/>
        <path id="Path_6909" data-name="Path 6909" d="M145.19,21.107V5.811a7.793,7.793,0,0,1,.33-2.23,3.4,3.4,0,0,1,2.544-2.415A8.139,8.139,0,0,1,150.084.9h21.737a5.032,5.032,0,0,1,1.8.29,2.785,2.785,0,0,1,1.924,2.319,3.389,3.389,0,0,1-.081,1.505,2.761,2.761,0,0,1-1.827,1.9,5.169,5.169,0,0,1-1.755.274H153.812c-.427,0-.427,0-.427.435V16.8c0,.217.056.33.29.306a1.638,1.638,0,0,1,.354,0H170.3a5.636,5.636,0,0,1,1.763.266,2.713,2.713,0,0,1,1.956,2.641,3.317,3.317,0,0,1-.346,1.691,2.785,2.785,0,0,1-1.481,1.28,5.571,5.571,0,0,1-1.924.306H154.086c-.805,0-.684-.1-.684.708v10.16c0,.644-.064.58.588.58H172.36a5.74,5.74,0,0,1,2.013.33,2.946,2.946,0,0,1,1.908,2.673,3.381,3.381,0,0,1-.419,1.972,3.317,3.317,0,0,1-2.5,1.481,15.1,15.1,0,0,1-2,.072H150.358a8.856,8.856,0,0,1-1.9-.177,3.526,3.526,0,0,1-3.083-3.019,7.567,7.567,0,0,1-.185-1.811Z" transform="translate(-28.302 -0.18)" fill="#a2eaa0"/>
        <path id="Path_6910" data-name="Path 6910" d="M0,21.1V5.8A8.123,8.123,0,0,1,.233,3.752a3.534,3.534,0,0,1,2.987-2.7A8.968,8.968,0,0,1,5.064.87h21.5a6.875,6.875,0,0,1,1.465.169,2.922,2.922,0,0,1,2.415,3.027A2.914,2.914,0,0,1,28.982,6.61a3.872,3.872,0,0,1-1.787.5H8.525c-.378,0-.386,0-.386.394v9.2c0,.394,0,.394.427.394H25.15a5.555,5.555,0,0,1,1.417.177,2.713,2.713,0,0,1,2.117,1.932,2.995,2.995,0,0,1-2.528,4.025,8.188,8.188,0,0,1-1.473.089H8.71c-.62,0-.572-.056-.572.555V34.352c0,.37,0,.37.4.378H27.211a4.83,4.83,0,0,1,2.278.491,2.866,2.866,0,0,1,1.522,2.158,3.405,3.405,0,0,1-.177,1.924,2.9,2.9,0,0,1-1.916,1.707,5.064,5.064,0,0,1-1.546.217H4.774a6.441,6.441,0,0,1-2.415-.443,3.277,3.277,0,0,1-2-2.021A6.577,6.577,0,0,1,0,36.494c0-4.42,0-8.856,0-13.259Z" transform="translate(0.001 -0.174)" fill="#a2eaa0"/>
        <path id="Path_6911" data-name="Path 6911" d="M61.127,32.332c.177-.089.169-.258.209-.386l3.156-9.4q2.093-6.247,4.186-12.47c.7-2.077,1.4-4.162,2.1-6.231.177-.515.346-1.022.564-1.514A3.55,3.55,0,0,1,73.758.138a3.961,3.961,0,0,1,4.685,2.415,4.025,4.025,0,0,1,.129,2.1,13.4,13.4,0,0,1-.805,2.665c-.668,1.86-1.352,3.711-2.037,5.563l-2.463,6.61c-.66,1.787-1.312,3.574-1.972,5.354-.91,2.439-1.836,4.943-2.745,7.358-.515,1.377-1.006,2.761-1.505,4.138a11.689,11.689,0,0,1-1.61,3.22A5.152,5.152,0,0,1,61.8,41.719a6.835,6.835,0,0,1-2.592-.161A5.12,5.12,0,0,1,56.143,39.2,16.3,16.3,0,0,1,54.8,36.229q-1.763-4.83-3.534-9.661c-.918-2.5-1.819-5-2.737-7.487-1.095-2.979-2.19-5.941-3.285-8.912-.475-1.312-.95-2.6-1.369-3.9a8.945,8.945,0,0,1-.515-2.512A2.52,2.52,0,0,1,43.528,2.7,3.937,3.937,0,0,1,46.6.066a5.032,5.032,0,0,1,1.771.04A3.1,3.1,0,0,1,50.6,1.869a22.783,22.783,0,0,1,1.312,3.22L55.5,15.7l2.536,7.519q1.353,4.025,2.7,8C60.861,31.592,61,31.954,61.127,32.332Z" transform="translate(-8.451 -0.006)" fill="#a2eaa0"/>
        <path id="Path_6912" data-name="Path 6912" d="M94.748,6.93c.121.121.072.274.072.411v30.5c0,.145.048.3-.072.419-.129-.121-.081-.274-.081-.411V7.341C94.668,7.2,94.62,7.051,94.748,6.93Z" transform="translate(-18.452 -1.356)" fill="#a2eaa0"/>
      </g>
    </g>
  </g>
</svg>
