<svg width="176" height="167" viewBox="0 0 176 167" fill="none" xmlns="http://www.w3.org/2000/svg">
<g clip-path="url(#clip0_808_4179)">
<path d="M175.04 79.6571C175.04 93.9588 156.625 106.185 136.286 105.411C134.21 105.336 132.078 105.091 129.946 104.732C129.927 104.732 129.927 104.732 129.908 104.732C111.343 101.053 91.9468 84.091 72.683 72.6761C62.57 66.6951 52.3815 62.8461 42.5703 62.0914C64.0416 62.9215 83.0036 78.5817 94.1543 78.5817C114.494 78.5817 132.55 61.9404 155.248 61.9404C165.983 61.9404 175.04 69.4309 175.04 79.6571Z" fill="#0080FF"/>
<path d="M141.399 21.7725C141.154 24.9423 140.248 27.9799 138.795 30.8101C133.041 41.0929 116.475 44.9608 106.513 42.5646C106.267 42.508 106.003 42.4325 105.758 42.3759C102.513 41.4891 99.3618 39.9609 96.5694 37.9798C96.5506 37.9609 96.5128 37.942 96.494 37.9232C93.1167 35.3949 90.2488 32.0176 87.7017 27.6592C91.928 17.848 102.758 0.867188 121.324 0.867188C132.248 0.867188 142.304 9.65949 141.399 21.7725Z" fill="#0080FF"/>
<path d="M34.003 145.129C34.2483 141.959 35.154 138.921 36.6068 136.091C42.3614 125.808 58.9272 121.941 68.8892 124.337C69.1345 124.393 69.3987 124.469 69.644 124.525C72.8892 125.412 76.0401 126.941 78.8325 128.922C78.8513 128.94 78.8891 128.959 78.9079 128.978C82.2475 131.488 85.1154 134.884 87.6625 139.223C83.4362 149.034 72.6062 166.015 54.0404 166.015C43.1727 166.015 33.0974 157.242 34.003 145.129Z" fill="#0080FF"/>
<path d="M138.794 30.7912C131.247 45.4136 108.983 54.9795 87.7757 55.0172H87.6437C62.3045 54.9795 35.4747 41.3382 34.003 21.7725C33.0974 9.65949 43.1727 0.867188 54.0782 0.867188C72.6439 0.867188 82.3041 18.4518 87.7003 27.6592C90.2474 31.9987 93.1153 35.3949 96.4548 37.9043C96.4737 37.9232 96.5114 37.942 96.5303 37.9609C99.2472 39.9986 102.304 41.4514 105.719 42.357C105.964 42.4325 106.228 42.4891 106.474 42.5457C116.473 44.9608 133.039 41.0741 138.794 30.7912Z" fill="#0080FF"/>
<path d="M129.947 104.735C131.796 105.093 133.645 105.339 135.475 105.414C115.891 104.64 93.589 88.7917 81.1175 88.7917C60.7783 88.7917 42.722 105.433 20.0242 105.433C9.30743 105.433 0.250977 97.9424 0.250977 87.7162C0.250977 73.4145 15.4583 61.9619 39.005 61.9619C40.1937 61.9619 41.3824 61.9997 42.571 62.1129C52.3822 62.8676 62.5707 66.7166 72.6837 72.6976C91.9475 84.0936 111.343 101.056 129.909 104.735C129.909 104.735 129.928 104.735 129.947 104.735Z" fill="#0080FF"/>
<path d="M36.6294 136.089C44.1576 121.485 66.4214 111.92 87.6474 111.882H87.7795C113.119 111.92 139.948 125.561 141.42 145.127C142.326 157.24 132.25 166.032 121.345 166.032C102.779 166.032 93.119 148.447 87.7229 139.24C85.1757 134.9 82.3079 131.504 78.9683 128.995C78.9494 128.976 78.9117 128.957 78.8928 128.938C76.1759 126.9 73.1193 125.448 69.7043 124.542C69.459 124.467 69.1949 124.41 68.9496 124.353C58.9498 121.938 42.3651 125.825 36.6294 136.089Z" fill="#0080FF"/>
<g opacity="0.51">
<path d="M175.037 79.6571C175.037 93.9588 156.623 106.185 136.283 105.411C134.208 105.336 132.076 105.091 129.944 104.732C129.925 104.732 129.925 104.732 129.906 104.732C111.34 101.053 91.9444 84.091 72.6806 72.6761C62.5675 66.6951 52.379 62.8461 42.5679 62.0914C64.0392 62.9215 83.0011 78.5817 94.1519 78.5817C114.491 78.5817 132.547 61.9404 155.245 61.9404C165.981 61.9404 175.037 69.4309 175.037 79.6571Z" fill="black"/>
<path d="M141.396 21.7725C141.151 24.9423 140.245 27.9799 138.793 30.8101C133.038 41.0929 116.472 44.9608 106.51 42.5646C106.265 42.508 106.001 42.4325 105.756 42.3759C102.51 41.4891 99.3594 39.9609 96.567 37.9798C96.5481 37.9609 96.5104 37.942 96.4915 37.9232C93.1142 35.3949 90.2463 32.0176 87.6992 27.6592C91.9256 17.848 102.756 0.867188 121.321 0.867188C132.246 0.867188 142.302 9.65949 141.396 21.7725Z" fill="black"/>
<path d="M34.0006 145.129C34.2459 141.959 35.1515 138.921 36.6043 136.091C42.359 125.808 58.9247 121.941 68.8868 124.337C69.1321 124.393 69.3962 124.469 69.6415 124.525C72.8867 125.412 76.0376 126.941 78.83 128.922C78.8489 128.94 78.8866 128.959 78.9055 128.978C82.2451 131.488 85.1129 134.884 87.6601 139.223C83.4337 149.034 72.6037 166.015 54.038 166.015C43.1703 166.015 33.095 157.242 34.0006 145.129Z" fill="black"/>
</g>
</g>
<defs>
<clipPath id="clip0_808_4179">
<rect width="174.789" height="165.148" fill="white" transform="translate(0.244141 0.866211)"/>
</clipPath>
</defs>
</svg>
