
<svg xmlns="http://www.w3.org/2000/svg" width="392" height="176" viewBox="0 0 148 44" fill="none">
  <g clip-path="url(#clip0_34_1233)">
    <path
      d="M56.0071 13.1534C59.1862 13.9274 60.8432 15.0654 60.8432 17.5795C60.8432 20.4175 58.6301 22.0945 55.471 22.0945C53.169 22.0945 50.9989 21.3004 49.1929 19.6865L50.7839 17.7945C52.223 19.0415 53.6649 19.7496 55.534 19.7496C57.1681 19.7496 58.2001 18.9985 58.2001 17.8375C58.2001 16.7424 57.5981 16.1576 54.8059 15.5155C51.6009 14.7415 49.7949 13.7984 49.7949 11.0005C49.7949 8.3775 51.9449 6.6145 54.932 6.6145C57.1251 6.6145 58.8652 7.27957 60.3903 8.5065L58.9712 10.5046C57.6182 9.4955 56.2622 8.95657 54.889 8.95657C53.3381 8.95657 52.438 9.75064 52.438 10.7626C52.438 11.9436 53.126 12.4596 56.0071 13.1476V13.1534Z"
      fill="#176BB1" />
    <path
      d="M75.5236 15.3664C75.5236 19.8585 72.9866 22.1174 69.0534 22.1174C65.1203 22.1174 62.6492 19.8585 62.6492 15.4954V6.83521H65.2923V15.3893C65.2923 18.1843 66.7314 19.6865 69.0964 19.6865C71.4615 19.6865 72.8776 18.2675 72.8776 15.4954V6.83521H75.5236V15.3693V15.3664Z"
      fill="#176BB1" />
    <path
      d="M83.714 17.0434H80.7269V21.8795H78.0837V6.83521H84.0178C87.521 6.83521 89.7341 8.81034 89.7341 11.8863C89.7341 15.2833 87.025 17.0434 83.7168 17.0434H83.714ZM83.8 9.24034H80.7269V14.6583H83.8C85.7981 14.6583 87.0451 13.5633 87.0451 11.9493C87.0451 10.1663 85.778 9.24034 83.8 9.24034Z"
      fill="#176BB1" />
    <path
      d="M101.015 21.8795L97.3165 16.6335H94.0083V21.8795H91.3652V6.83521H98.0705C101.531 6.83521 103.661 8.66127 103.661 11.6053C103.661 14.0965 102.176 15.6043 100.069 16.1834L104.131 21.8795H101.015ZM97.8555 9.24034H94.0083V14.2914H97.8784C99.7704 14.2914 100.972 13.3024 100.972 11.7544C100.972 10.1003 99.8106 9.23747 97.8555 9.23747V9.24034Z"
      fill="#176BB1" />
    <path
      d="M116.985 9.19734H108.474V13.1103H116.016V15.4753H108.474V19.5173H117.091V21.8823H105.831V6.83521H116.985V9.19734Z"
      fill="#176BB1" />
    <path
      d="M126.551 18.1843H126.465L121.758 11.1323V21.8795H119.158V6.83521H121.973L126.551 13.9503L131.13 6.83521H133.948V21.8795H131.302V11.0893L126.551 18.1843Z"
      fill="#176BB1" />
    <path
      d="M147.894 9.19734H139.383V13.1103H146.925V15.4753H139.383V19.5173H148V21.8823H136.74V6.83521H147.894V9.19734Z"
      fill="#176BB1" />
    <path
      d="M54.6769 37.2879C51.0648 37.2879 48.6912 34.7165 48.6912 31.3367C48.6912 27.9569 51.1623 25.3511 54.6425 25.3511C56.6549 25.3511 57.8876 25.9129 59.0773 26.9163L57.7901 28.4499C56.9014 27.6931 56.0271 27.2144 54.5593 27.2144C52.4322 27.2144 50.8154 29.0605 50.8154 31.3023C50.8154 33.6931 52.3806 35.4389 54.7399 35.4389C55.8264 35.4389 56.8154 35.092 57.5264 34.5645V32.4059H54.5765V30.6429H59.4872V35.4876C58.3491 36.4594 56.718 37.285 54.674 37.285L54.6769 37.2879Z"
      fill="#40B6E8" />
    <path
      d="M68.7036 37.0901L65.8684 33.0682H63.3285V37.0901H61.3018V25.5518H66.4446C69.0992 25.5518 70.7304 26.9536 70.7304 29.2125C70.7304 31.1246 69.5923 32.2798 67.9783 32.7242L71.0916 37.093H68.7036V37.0901ZM66.2812 27.3979H63.3314V31.2708H66.2984C67.749 31.2708 68.6721 30.514 68.6721 29.3243C68.6721 28.0544 67.7834 27.395 66.2812 27.395V27.3979Z"
      fill="#40B6E8" />
    <path
      d="M77.903 37.2879C74.3597 37.2879 71.8857 34.6018 71.8857 31.3367C71.8857 28.0715 74.3913 25.3511 77.9374 25.3511C81.4835 25.3511 83.9546 28.04 83.9546 31.3023C83.9546 34.5645 81.4491 37.2879 77.903 37.2879ZM77.903 27.2173C75.6125 27.2173 74.0128 29.0462 74.0128 31.3051C74.0128 33.5641 75.6469 35.4274 77.9374 35.4274C80.2279 35.4274 81.8275 33.5956 81.8275 31.3395C81.8275 29.0835 80.1935 27.2173 77.903 27.2173Z"
      fill="#40B6E8" />
    <path
      d="M95.2753 32.0935C95.2753 35.5392 93.3288 37.2707 90.313 37.2707C87.2972 37.2707 85.4023 35.5392 85.4023 32.1938V25.5518H87.4291V32.1136C87.4291 34.255 88.5328 35.4102 90.3474 35.4102C92.1621 35.4102 93.2457 34.3238 93.2457 32.1967V25.5546H95.2753V32.0992V32.0935Z"
      fill="#40B6E8" />
    <path
      d="M101.556 33.3806H99.2658V37.0901H97.239V25.5518H101.786C104.475 25.5518 106.172 27.0682 106.172 29.4275C106.172 32.0333 104.096 33.3835 101.556 33.3835V33.3806ZM101.622 27.3979H99.2658V31.5517H101.622C103.156 31.5517 104.113 30.7118 104.113 29.4762C104.113 28.106 103.139 27.3979 101.622 27.3979Z"
      fill="#40B6E8" />
    <path
      d="M21.5004 0.5C9.62644 0.5 0 10.1263 0 22.0029C0 33.8795 9.62644 43.5 21.5004 43.5C33.3743 43.5 43.0008 33.8737 43.0008 22.0029C43.0008 10.132 33.3743 0.5 21.5004 0.5ZM21.5004 41.1723C12.0173 41.1723 4.32874 32.5866 4.32874 22C4.32874 11.4134 12.0173 2.82773 21.5004 2.82773C30.9835 2.82773 38.672 11.4105 38.672 22C38.672 32.5895 30.9863 41.1723 21.5004 41.1723Z"
      fill="#176BB1" />
    <path
      d="M27.6496 8.31459C28.1455 8.53532 29.7423 9.28065 30.6023 9.81099V15.272H29.7767C29.5846 15.272 28.9855 12.4541 25.4336 9.98299C24.1379 9.08285 22.4924 8.40345 21.0103 8.40345C19.5282 8.40345 18.3786 8.81339 17.424 9.63612C16.4723 10.4589 15.9935 11.4909 15.9935 12.735C15.9935 13.7297 16.4379 14.6241 17.3265 15.4239C18.2152 16.2237 19.9238 16.9805 22.4551 17.6886C26.4255 18.8152 29.1087 20.2027 30.5163 21.8567C31.9095 23.5108 32.6061 25.3483 32.6061 27.3722C32.6061 29.3961 32.0959 31.1734 31.0724 32.5752C30.0519 33.977 28.8307 35.0835 27.4116 35.8862C25.9898 36.6889 24.1665 37.0931 21.9448 37.0931C20.6863 37.0931 19.382 36.9125 18.0346 36.5484C16.6873 36.1872 15.2797 35.6798 13.8607 34.923C12.8831 34.3984 11.295 33.4725 10.908 33.2259V27.0741L11.8482 27.0683C11.8912 27.2403 11.9486 27.4582 12.0575 27.7277C12.9605 29.9436 14.199 31.8385 15.8272 33.1887C17.4727 34.5503 19.4852 35.4763 21.5463 35.4763C23.2922 35.4763 24.7026 34.9603 25.7776 33.9254C26.8498 32.8905 27.3858 31.7181 27.3858 30.4023C27.3858 29.0865 26.8899 27.9799 25.9009 27.0798C24.9119 26.1797 23.1259 25.3168 20.5487 24.4883C18.0461 23.6771 16.1856 22.9002 14.9644 22.1635C13.7431 21.4239 12.7656 20.4091 12.0317 19.1162C11.2978 17.8233 10.9338 16.5133 10.9338 15.1831C10.9338 12.864 11.831 10.8917 13.6285 9.26919C15.4316 7.64665 17.8769 6.83252 20.973 6.83252C22.6443 6.83252 24.9549 7.12779 27.6553 8.31745L27.6496 8.31459Z"
      fill="#176BB1" />
  </g>
  <defs>
    <clipPath id="clip0_34_1233">
      <rect width="148" height="43" fill="white" transform="translate(0 0.5)" />
    </clipPath>
  </defs>
</svg>