<svg width="241" height="247" viewBox="0 0 241 247" fill="none" xmlns="http://www.w3.org/2000/svg">
<path d="M130 242.041C138.93 234.997 138.987 234.6 132.503 225.256C139.547 234.186 139.943 234.244 149.288 227.759C140.358 234.804 140.3 235.2 146.785 244.544C139.739 235.615 139.347 235.554 130 242.041Z" fill="url(#paint0_linear_920_1014)"/>
<path d="M211.857 67.8895C216.92 57.7044 216.803 57.3215 206.946 51.645C217.132 56.7075 217.515 56.5904 223.191 46.7342C218.129 56.9193 218.246 57.3023 228.102 62.9787C217.916 57.9179 217.535 58.0303 211.857 67.8895Z" fill="url(#paint1_linear_920_1014)"/>
<path d="M6.91466 79.6396C15.8445 72.5953 15.9024 72.1991 9.41792 62.8547C16.4622 71.7846 16.8584 71.8424 26.2028 65.358C17.273 72.4022 17.2151 72.7985 23.6996 82.1429C16.6539 73.2141 16.2619 73.1531 6.91466 79.6396Z" fill="url(#paint2_linear_920_1014)"/>
<path d="M213.567 108.087C213.458 107.146 213.524 106.262 213.767 105.437C214.021 104.61 214.419 103.869 214.959 103.215C215.512 102.571 216.188 102.039 216.985 101.621C217.782 101.202 218.681 100.935 219.682 100.819C220.684 100.703 221.62 100.757 222.492 100.982C223.364 101.208 224.143 101.57 224.829 102.071C225.516 102.583 226.073 103.213 226.498 103.961C226.935 104.708 227.208 105.552 227.317 106.493C227.422 107.399 227.355 108.229 227.116 108.981C226.878 109.746 226.532 110.402 226.076 110.95C225.633 111.509 225.144 111.928 224.609 112.207L223.834 110.992C224.605 110.565 225.184 109.978 225.569 109.233C225.953 108.488 226.089 107.626 225.976 106.649C225.862 105.671 225.529 104.828 224.976 104.119C224.422 103.41 223.704 102.89 222.82 102.557C221.947 102.223 220.957 102.121 219.848 102.249C218.752 102.376 217.811 102.703 217.026 103.229C216.242 103.755 215.661 104.426 215.285 105.243C214.92 106.058 214.794 106.954 214.908 107.932C215.009 108.802 215.29 109.561 215.751 110.208C216.214 110.867 216.797 111.361 217.5 111.69C218.214 112.018 219.001 112.133 219.859 112.033L220.592 111.948L220.023 112.666L219.414 107.41L220.665 107.265L221.366 113.308L220.257 113.437C219.387 113.537 218.564 113.476 217.789 113.251C217.026 113.026 216.345 112.67 215.745 112.184C215.145 111.698 214.653 111.102 214.269 110.398C213.899 109.704 213.665 108.934 213.567 108.087Z" fill="white"/>
<path d="M214.448 116.011L227.857 116.213L227.727 124.852L226.377 124.832L226.485 117.633L221.824 117.562L221.721 124.402L220.371 124.381L220.474 117.542L215.777 117.471L215.668 124.67L214.318 124.65L214.448 116.011Z" fill="white"/>
<path d="M213.755 130.053L225.726 131.514L226.176 127.833L227.516 127.997L226.447 136.752L225.107 136.589L225.552 132.944L213.581 131.483L213.755 130.053Z" fill="white"/>
<path d="M211.197 143.592L224.144 147.088L223.768 148.478L210.822 144.982L211.197 143.592Z" fill="white"/>
<path d="M209.804 148.769L222.338 153.536L221.89 154.714L208.545 158.054L208.717 157.6L219.266 161.612L218.754 162.958L206.22 158.19L206.668 157.013L220.081 153.698L219.908 154.153L209.292 150.115L209.804 148.769Z" fill="white"/>
<path d="M200.64 168.676L210.969 174.902L212.884 171.726L214.04 172.423L209.487 179.977L208.331 179.28L210.226 176.135L199.897 169.91L200.64 168.676Z" fill="white"/>
<path d="M192.884 179.487C193.468 178.755 194.145 178.175 194.917 177.747C195.69 177.335 196.507 177.081 197.367 176.984C198.237 176.895 199.108 176.976 199.982 177.228C200.865 177.487 201.7 177.931 202.489 178.559C203.277 179.188 203.89 179.9 204.33 180.696C204.779 181.499 205.052 182.331 205.149 183.191C205.255 184.058 205.189 184.911 204.951 185.749C204.704 186.597 204.29 187.386 203.706 188.118C203.122 188.85 202.444 189.421 201.67 189.833C200.899 190.261 200.079 190.52 199.209 190.61C198.349 190.707 197.482 190.629 196.608 190.377C195.735 190.126 194.904 189.686 194.116 189.057C193.328 188.429 192.709 187.713 192.26 186.909C191.82 186.114 191.547 185.282 191.441 184.414C191.344 183.554 191.414 182.697 191.651 181.842C191.89 181.004 192.301 180.219 192.884 179.487ZM193.94 180.329C193.453 180.939 193.124 181.582 192.953 182.259C192.774 182.945 192.741 183.632 192.852 184.319C192.964 185.007 193.204 185.659 193.572 186.275C193.933 186.9 194.413 187.452 195.014 187.931C195.605 188.403 196.245 188.745 196.935 188.957C197.618 189.179 198.307 189.268 199.002 189.224C199.697 189.18 200.359 188.994 200.988 188.667C201.61 188.35 202.164 187.886 202.651 187.276C203.137 186.666 203.47 186.018 203.648 185.332C203.82 184.655 203.85 183.973 203.738 183.286C203.627 182.598 203.39 181.941 203.03 181.316C202.661 180.7 202.182 180.156 201.591 179.685C200.99 179.206 200.349 178.856 199.666 178.634C198.976 178.421 198.284 178.337 197.588 178.381C196.893 178.425 196.231 178.611 195.602 178.938C194.973 179.265 194.419 179.728 193.94 180.329Z" fill="white"/>
<path d="M183.545 189.62C184.233 188.968 184.975 188.538 185.77 188.33C186.565 188.122 187.341 188.13 188.099 188.353C188.865 188.586 189.554 189.024 190.165 189.669L196.382 196.226L195.338 197.216L189.12 190.66C188.674 190.189 188.182 189.871 187.643 189.704C187.104 189.554 186.561 189.548 186.014 189.686C185.466 189.841 184.953 190.146 184.474 190.6C183.995 191.054 183.668 191.546 183.493 192.076C183.317 192.623 183.294 193.166 183.424 193.704C183.554 194.259 183.841 194.772 184.287 195.242L190.505 201.799L189.46 202.79L183.242 196.233C182.631 195.589 182.23 194.878 182.039 194.1C181.855 193.331 181.889 192.556 182.139 191.773C182.38 190.998 182.849 190.281 183.545 189.62Z" fill="white"/>
<path d="M172.611 198.521C173.382 197.969 174.187 197.598 175.026 197.41C175.872 197.231 176.713 197.219 177.547 197.373C178.379 197.545 179.171 197.877 179.924 198.371C180.677 198.864 181.347 199.521 181.935 200.34C182.522 201.159 182.929 202.004 183.156 202.876C183.382 203.747 183.443 204.604 183.339 205.447C183.225 206.297 182.944 207.089 182.496 207.824C182.055 208.568 181.45 209.216 180.679 209.769C179.938 210.301 179.181 210.645 178.407 210.801C177.623 210.964 176.881 210.98 176.181 210.847C175.477 210.731 174.874 210.507 174.369 210.175L175.12 208.905C175.848 209.343 176.631 209.55 177.469 209.524C178.305 209.516 179.112 209.232 179.893 208.672C180.692 208.098 181.268 207.398 181.619 206.57C181.97 205.742 182.076 204.861 181.938 203.926C181.806 203.002 181.415 202.086 180.765 201.179C180.121 200.282 179.379 199.618 178.539 199.187C177.698 198.757 176.829 198.575 175.932 198.642C175.042 198.72 174.198 199.045 173.398 199.618C172.618 200.178 172.087 200.847 171.804 201.626C171.511 202.412 171.455 203.22 171.637 204.05L170.194 204.354C170.047 203.779 170.029 203.136 170.138 202.423C170.244 201.726 170.5 201.033 170.905 200.343C171.302 199.66 171.87 199.053 172.611 198.521Z" fill="white"/>
<path d="M166.786 202.681L173.021 214.554L171.746 215.223L168.942 209.884L162.568 213.232L165.372 218.571L164.097 219.24L157.862 207.368L159.137 206.698L161.94 212.037L168.315 208.689L165.511 203.351L166.786 202.681Z" fill="white"/>
<path d="M99.3687 210.049C100.275 210.328 101.056 210.745 101.714 211.3C102.368 211.866 102.886 212.528 103.268 213.286C103.634 214.052 103.848 214.884 103.91 215.782C103.972 216.681 103.854 217.611 103.557 218.575C103.26 219.538 102.833 220.373 102.276 221.08C101.718 221.787 101.072 222.354 100.338 222.78C99.5923 223.203 98.7914 223.459 97.9356 223.546C97.0762 223.645 96.1936 223.555 95.2877 223.275C94.4162 223.007 93.6843 222.611 93.0918 222.089C92.4879 221.564 92.0269 220.982 91.7089 220.344C91.3759 219.714 91.1893 219.097 91.1492 218.495L92.5733 218.275C92.6538 219.154 92.9576 219.919 93.4847 220.572C94.0118 221.224 94.7455 221.695 95.6857 221.985C96.626 222.276 97.532 222.31 98.4039 222.089C99.2757 221.869 100.042 221.421 100.702 220.745C101.359 220.082 101.852 219.216 102.181 218.15C102.507 217.095 102.587 216.103 102.422 215.173C102.257 214.243 101.876 213.441 101.28 212.767C100.681 212.105 99.9109 211.629 98.9707 211.339C98.1336 211.08 97.3259 211.032 96.5477 211.194C95.7579 211.352 95.0708 211.686 94.4864 212.197C93.8984 212.719 93.477 213.392 93.2223 214.218L93.0047 214.923L92.5766 214.113L97.6333 215.673L97.2619 216.877L91.4483 215.083L91.7773 214.017C92.0356 213.18 92.4235 212.452 92.9409 211.833C93.4549 211.225 94.0552 210.745 94.7419 210.392C95.4285 210.039 96.1715 209.828 96.9709 209.761C97.7553 209.702 98.5546 209.798 99.3687 210.049Z" fill="white"/>
<path d="M91.7608 207.663L86.1734 219.853L78.3191 216.253L78.8816 215.026L85.4268 218.026L87.3693 213.788L81.1513 210.938L81.7138 209.711L87.9318 212.561L89.8893 208.29L83.344 205.29L83.9065 204.063L91.7608 207.663Z" fill="white"/>
<path d="M79.1879 201.371L73.0278 211.739L76.2156 213.633L75.5261 214.794L67.9435 210.289L68.633 209.128L71.7899 211.004L77.95 200.636L79.1879 201.371Z" fill="white"/>
<path d="M67.8269 193.575L59.4116 204.016L58.2905 203.113L66.7058 192.672L67.8269 193.575Z" fill="white"/>
<path d="M63.6507 190.214L54.2376 199.765L53.3401 198.881L55.66 185.321L56.0061 185.662L48.0839 193.7L47.0583 192.689L56.4714 183.138L57.3688 184.023L54.9985 197.634L54.6523 197.293L62.6251 189.203L63.6507 190.214Z" fill="white"/>
<path d="M49.1225 173.808L39.2633 180.753L41.3987 183.784L40.2951 184.562L35.2156 177.351L36.3192 176.574L38.434 179.576L48.2932 172.63L49.1225 173.808Z" fill="white"/>
<path d="M42.3524 162.353C42.787 163.182 43.0449 164.036 43.1262 164.915C43.1914 165.788 43.095 166.638 42.8371 167.464C42.5686 168.296 42.1432 169.061 41.5608 169.759C40.9678 170.463 40.2249 171.049 39.3322 171.517C38.4394 171.985 37.5403 172.26 36.6348 172.342C35.7186 172.429 34.8474 172.344 34.0212 172.086C33.1844 171.834 32.4305 171.43 31.7596 170.874C31.0832 170.307 30.5276 169.609 30.093 168.78C29.6584 167.951 29.4085 167.1 29.3434 166.226C29.2621 165.347 29.3557 164.492 29.6242 163.66C29.8821 162.834 30.3022 162.072 30.8846 161.374C31.4669 160.676 32.2045 160.092 33.0972 159.624C33.99 159.156 34.8944 158.879 35.8106 158.791C36.7162 158.709 37.5873 158.795 38.4242 159.047C39.2504 159.305 40.007 159.714 40.6941 160.275C41.365 160.831 41.9178 161.524 42.3524 162.353ZM41.1567 162.98C40.7946 162.289 40.3383 161.729 39.7879 161.299C39.2319 160.859 38.6168 160.552 37.9425 160.377C37.2682 160.202 36.5749 160.159 35.8628 160.248C35.145 160.326 34.4461 160.543 33.7659 160.9C33.0963 161.251 32.5252 161.699 32.0526 162.245C31.5745 162.78 31.2156 163.375 30.9759 164.029C30.7362 164.683 30.6392 165.364 30.685 166.072C30.7253 166.769 30.9265 167.463 31.2886 168.153C31.6508 168.844 32.1099 169.41 32.6658 169.85C33.2162 170.279 33.8286 170.582 34.5029 170.757C35.1772 170.931 35.8732 170.98 36.591 170.902C37.3031 170.813 37.994 170.593 38.6636 170.242C39.3438 169.885 39.9229 169.439 40.4011 168.904C40.8737 168.358 41.2298 167.758 41.4695 167.104C41.7092 166.45 41.8062 165.769 41.7603 165.062C41.7145 164.354 41.5133 163.66 41.1567 162.98Z" fill="white"/>
<path d="M36.8404 149.722C37.1603 150.615 37.2553 151.467 37.1254 152.278C36.9956 153.089 36.6755 153.797 36.1653 154.401C35.6437 155.008 34.9649 155.462 34.129 155.761L25.6229 158.81L25.137 157.455L33.6431 154.406C34.2531 154.187 34.7432 153.865 35.1132 153.439C35.4679 153.006 35.6921 152.511 35.7859 151.955C35.8644 151.392 35.7923 150.799 35.5696 150.178C35.3469 149.557 35.0283 149.059 34.6137 148.685C34.1839 148.304 33.6964 148.064 33.1515 147.966C32.5911 147.861 32.006 147.918 31.396 148.136L22.8899 151.185L22.404 149.83L30.9101 146.781C31.746 146.481 32.5584 146.4 33.3472 146.538C34.1247 146.68 34.8213 147.023 35.437 147.568C36.0487 148.1 36.5165 148.819 36.8404 149.722Z" fill="white"/>
<path d="M33.0996 136.129C33.295 137.057 33.3099 137.943 33.1444 138.787C32.9671 139.634 32.6396 140.408 32.1619 141.11C31.67 141.802 31.0464 142.393 30.2912 142.883C29.536 143.373 28.6653 143.722 27.6789 143.93C26.6925 144.138 25.755 144.17 24.8662 144.026C23.9775 143.882 23.1685 143.592 22.4392 143.157C21.7074 142.71 21.0955 142.134 20.6035 141.428C20.0997 140.725 19.7502 139.91 19.5548 138.982C19.3668 138.09 19.3572 137.258 19.5259 136.486C19.692 135.703 19.9769 135.018 20.3804 134.43C20.7697 133.833 21.2181 133.371 21.7255 133.043L22.5849 134.242C21.8909 134.731 21.3867 135.365 21.0721 136.142C20.7434 136.911 20.678 137.764 20.8758 138.704C21.0786 139.667 21.4881 140.476 22.1043 141.131C22.7206 141.786 23.4842 142.238 24.3952 142.488C25.2944 142.74 26.2901 142.751 27.3821 142.521C28.4624 142.293 29.3691 141.882 30.102 141.286C30.8349 140.69 31.3512 139.968 31.6509 139.12C31.9388 138.275 31.9814 137.37 31.7786 136.408C31.5808 135.468 31.1824 134.712 30.5835 134.139C29.9821 133.555 29.2651 133.178 28.4326 133.01L28.7357 131.567C29.3203 131.664 29.9171 131.907 30.5259 132.293C31.1204 132.671 31.6517 133.185 32.1196 133.834C32.585 134.472 32.9117 135.237 33.0996 136.129Z" fill="white"/>
<path d="M31.6396 129.122L18.2614 130.045L18.1623 128.608L24.178 128.193L23.6824 121.01L17.6667 121.425L17.5676 119.989L30.9458 119.066L31.0449 120.502L25.0292 120.917L25.5248 128.1L31.5405 127.685L31.6396 129.122Z" fill="white"/>
<path d="M56.6984 54.6863C55.9918 55.3183 55.2313 55.7731 54.417 56.0506C53.5946 56.3192 52.7603 56.4214 51.9141 56.3572C51.0687 56.2761 50.2453 56.0305 49.4438 55.6203C48.6424 55.2102 47.9056 54.6295 47.2337 53.8781C46.5617 53.1268 46.0664 52.3301 45.748 51.488C45.4295 50.6459 45.2769 49.8003 45.2903 48.9512C45.3126 48.0941 45.5069 47.2763 45.8732 46.4979C46.2316 45.7105 46.764 45.0008 47.4707 44.3688C48.1504 43.7609 48.8667 43.3376 49.6193 43.0991C50.3809 42.8527 51.1171 42.7577 51.8278 42.8143C52.5395 42.854 53.1638 43.0121 53.7008 43.2885L53.1548 44.622C52.3603 44.2378 51.5477 44.1032 50.717 44.2184C49.8862 44.3335 49.1041 44.7191 48.3706 45.3751C47.6372 46.0311 47.1402 46.7895 46.8798 47.6503C46.6193 48.5111 46.6081 49.3986 46.8461 50.3127C47.076 51.2178 47.563 52.0863 48.307 52.9182C49.043 53.7411 49.8519 54.3216 50.7339 54.6597C51.6159 54.9978 52.4991 55.0853 53.3836 54.9222C54.26 54.7501 55.0649 54.336 55.7984 53.6801C56.4513 53.0961 56.9092 52.429 57.172 51.6788C57.4437 50.9206 57.5117 50.1595 57.3758 49.3955C57.2319 48.6227 56.872 47.9142 56.296 47.2702L55.804 46.7201L56.719 46.7711L52.7745 50.299L51.9345 49.3599L56.4694 45.304L57.2134 46.1358C57.7973 46.7888 58.221 47.4965 58.4845 48.2591C58.7399 49.0127 58.8419 49.7747 58.7904 50.5452C58.739 51.3157 58.536 52.0608 58.1814 52.7804C57.8278 53.483 57.3334 54.1183 56.6984 54.6863Z" fill="white"/>
<path d="M62.6656 49.3995L55.1025 38.3257L62.2373 33.4529L62.9987 34.5677L57.0531 38.6284L59.6824 42.4782L65.3307 38.6206L66.0921 39.7354L60.4437 43.593L63.0933 47.4726L69.039 43.4119L69.8004 44.5267L62.6656 49.3995Z" fill="white"/>
<path d="M74.5404 41.8717L68.8341 31.2471L65.5674 33.0016L64.9287 31.8123L72.6989 27.639L73.3377 28.8283L70.1027 30.5658L75.809 41.1904L74.5404 41.8717Z" fill="white"/>
<path d="M87.0782 36.1583L82.4727 23.564L83.8251 23.0694L88.4307 35.6637L87.0782 36.1583Z" fill="white"/>
<path d="M92.112 34.3131L88.7833 21.3228L90.0039 21.0101L100.425 29.9904L99.9544 30.111L97.1529 19.1782L98.5479 18.8208L101.877 31.8111L100.656 32.1238L90.2168 23.0738L90.6876 22.9532L93.5069 33.9557L92.112 34.3131Z" fill="white"/>
<path d="M113.661 30.3276L112.795 18.2987L109.096 18.5651L108.999 17.2185L117.797 16.585L117.894 17.9316L114.231 18.1953L115.097 30.2242L113.661 30.3276Z" fill="white"/>
<path d="M126.966 30.4343C126.032 30.3791 125.167 30.1598 124.373 29.7763C123.591 29.3815 122.912 28.8607 122.337 28.2137C121.763 27.5547 121.327 26.7957 121.029 25.9366C120.732 25.0656 120.613 24.127 120.672 23.1207C120.732 22.1145 120.96 21.2023 121.357 20.3843C121.754 19.5543 122.277 18.8518 122.924 18.277C123.571 17.6901 124.306 17.2526 125.129 16.9646C125.963 16.6773 126.848 16.5612 127.782 16.6163C128.716 16.6715 129.575 16.8964 130.357 17.2912C131.151 17.6747 131.836 18.1959 132.41 18.8549C132.985 19.5019 133.421 20.2549 133.719 21.1139C134.017 21.973 134.136 22.9056 134.077 23.9119C134.018 24.9181 133.789 25.8363 133.392 26.6663C132.995 27.4843 132.472 28.1868 131.825 28.7736C131.178 29.3485 130.437 29.7856 129.602 30.0849C128.779 30.373 127.901 30.4894 126.966 30.4343ZM127.046 29.0866C127.825 29.1326 128.54 29.0305 129.192 28.7805C129.856 28.5312 130.436 28.1628 130.934 27.6752C131.431 27.1877 131.826 26.6159 132.117 25.9599C132.42 25.3047 132.594 24.5937 132.64 23.827C132.684 23.0723 132.594 22.3518 132.37 21.6654C132.158 20.9797 131.834 20.3656 131.397 19.8229C130.961 19.2802 130.427 18.846 129.797 18.5204C129.179 18.1954 128.481 18.0099 127.702 17.964C126.924 17.918 126.203 18.0197 125.539 18.269C124.887 18.519 124.312 18.8878 123.814 19.3754C123.317 19.8629 122.917 20.4343 122.613 21.0896C122.322 21.7456 122.154 22.4509 122.11 23.2056C122.065 23.9722 122.148 24.6984 122.36 25.3841C122.584 26.0705 122.914 26.685 123.351 27.2277C123.788 27.7704 124.321 28.2045 124.951 28.5302C125.581 28.8559 126.279 29.0414 127.046 29.0866Z" fill="white"/>
<path d="M140.63 32.2244C139.7 32.0382 138.922 31.6803 138.293 31.1506C137.665 30.6209 137.224 29.9819 136.97 29.2334C136.718 28.4732 136.68 27.6578 136.854 26.787L138.629 17.927L140.041 18.2098L138.266 27.0698C138.139 27.7052 138.162 28.2912 138.336 28.8278C138.524 29.355 138.833 29.8023 139.261 30.1695C139.703 30.5273 140.248 30.7711 140.895 30.9007C141.542 31.0303 142.133 31.014 142.667 30.8517C143.216 30.6801 143.672 30.386 144.037 29.9695C144.416 29.5437 144.669 29.0131 144.796 28.3777L146.571 19.5176L147.983 19.8004L146.208 28.6605C146.034 29.5312 145.684 30.2689 145.159 30.8735C144.637 31.4665 143.984 31.8864 143.2 32.1333C142.428 32.3825 141.571 32.4129 140.63 32.2244Z" fill="white"/>
<path d="M154.206 36.03C153.31 35.719 152.543 35.2749 151.905 34.6976C151.271 34.1091 150.777 33.4293 150.422 32.6582C150.083 31.8798 149.898 31.0407 149.867 30.1409C149.837 29.2411 149.987 28.3151 150.318 27.3629C150.648 26.4107 151.105 25.5909 151.686 24.9037C152.268 24.2165 152.933 23.6726 153.682 23.2721C154.442 22.8756 155.251 22.6485 156.11 22.5909C156.972 22.522 157.851 22.643 158.747 22.954C159.608 23.2532 160.326 23.6739 160.9 24.2162C161.485 24.7624 161.925 25.3599 162.221 26.0088C162.531 26.6502 162.696 27.2728 162.715 27.8764L161.245 27.9947C161.184 27.1476 160.901 26.3889 160.397 25.7184C159.908 25.0406 159.211 24.5442 158.304 24.2293C157.374 23.9065 156.47 23.8402 155.591 24.0303C154.712 24.2205 153.93 24.6414 153.247 25.2932C152.567 25.9337 152.044 26.781 151.678 27.8353C151.316 28.8782 151.201 29.8672 151.334 30.8025C151.466 31.7377 151.818 32.5523 152.39 33.2464C152.966 33.9291 153.719 34.4319 154.648 34.7547C155.555 35.0696 156.409 35.1182 157.208 34.9005C158.019 34.6867 158.711 34.2666 159.285 33.64L160.365 34.644C159.98 35.0946 159.465 35.4809 158.819 35.803C158.189 36.1177 157.475 36.308 156.678 36.3739C155.891 36.4438 155.067 36.3292 154.206 36.03Z" fill="white"/>
<path d="M160.962 38.3928L167.07 26.4548L168.352 27.1107L165.606 32.4788L172.015 35.7584L174.762 30.3904L176.044 31.0463L169.936 42.9843L168.654 42.3284L171.4 36.9603L164.991 33.6806L162.244 39.0487L160.962 38.3928Z" fill="white"/>
<circle cx="121.033" cy="120.9" r="116.049" stroke="url(#paint3_linear_920_1014)" stroke-width="0.6"/>
<defs>
<linearGradient id="paint0_linear_920_1014" x1="134.52" y1="223.763" x2="151.46" y2="253.303" gradientUnits="userSpaceOnUse">
<stop stop-color="#CFEEFF"/>
<stop offset="1" stop-color="#EFADFF"/>
</linearGradient>
<linearGradient id="paint1_linear_920_1014" x1="208.131" y1="49.4331" x2="236.072" y2="68.8987" gradientUnits="userSpaceOnUse">
<stop stop-color="#CFEEFF"/>
<stop offset="1" stop-color="#EFADFF"/>
</linearGradient>
<linearGradient id="paint2_linear_920_1014" x1="11.4346" y1="61.3614" x2="28.3748" y2="90.9013" gradientUnits="userSpaceOnUse">
<stop stop-color="#CFEEFF"/>
<stop offset="1" stop-color="#EFADFF"/>
</linearGradient>
<linearGradient id="paint3_linear_920_1014" x1="4.68457" y1="96.5701" x2="332.603" y2="135.003" gradientUnits="userSpaceOnUse">
<stop stop-color="#CFEEFF"/>
<stop offset="1" stop-color="#EFADFF"/>
</linearGradient>
</defs>
</svg>
