 <svg  width="24"  height="24"  viewBox="0 0 24 24"  fill="none"  xmlns="http://www.w3.org/2000/svg">  <path d="M18.8882 5.10938C17.525 3.74478 15.7878 2.81515 13.8962 2.43811C12.0046 2.06106 10.0437 2.25354 8.26147 2.99119C6.47928 3.72884 4.95593 4.97851 3.88413 6.58212C2.81232 8.18572 2.24023 10.0712 2.24023 12C2.24023 13.9288 2.81232 15.8143 3.88413 17.4179C4.95593 19.0215 6.47928 20.2712 8.26147 21.0088C10.0437 21.7465 12.0046 21.9389 13.8962 21.5619C15.7878 21.1849 17.525 20.2552 18.8882 18.8906C19.7936 17.986 20.5118 16.9118 21.0019 15.7295C21.4919 14.5472 21.7441 13.2799 21.7441 12C21.7441 10.7201 21.4919 9.45283 21.0019 8.27049C20.5118 7.08816 19.7936 6.01399 18.8882 5.10938ZM15.3726 13.875C15.3726 14.0739 15.2935 14.2647 15.1529 14.4053C15.0122 14.546 14.8215 14.625 14.6226 14.625C14.4237 14.625 14.2329 14.546 14.0922 14.4053C13.9516 14.2647 13.8726 14.0739 13.8726 13.875V11.1844L9.90694 15.1594C9.76195 15.2954 9.57135 15.3723 9.37256 15.375C9.17341 15.3742 8.98216 15.297 8.83819 15.1594C8.69735 15.0172 8.61835 14.8251 8.61835 14.625C8.61835 14.4249 8.69735 14.2328 8.83819 14.0906L12.8132 10.125H10.1226C9.92365 10.125 9.73289 10.046 9.59224 9.90533C9.45158 9.76468 9.37256 9.57392 9.37256 9.375C9.37256 9.17609 9.45158 8.98533 9.59224 8.84467C9.73289 8.70402 9.92365 8.625 10.1226 8.625H14.6226C14.7191 8.62475 14.8148 8.64388 14.9038 8.68125C15.089 8.75615 15.2372 8.90098 15.3163 9.08438C15.3531 9.17689 15.3721 9.27547 15.3726 9.375V13.875Z" fill="currentColor"/></svg>