<svg width="400" height="401" viewBox="0 0 400 401" fill="none" xmlns="http://www.w3.org/2000/svg">
<path d="M10 144L289 391H283.222H10V144Z" fill="#4353FF"/>
<path d="M164 17C197.152 17 228.946 30.1696 252.388 53.6116C275.83 77.0536 289 108.848 289 142C289 175.152 275.831 206.946 252.389 230.388C228.947 253.83 197.152 267 164 267L164 142V17Z" fill="#4353FF"/>
<path d="M126.5 143C113.902 143 101.82 137.996 92.9124 129.088C84.0045 120.18 79 108.098 79 95.5C79 82.9023 84.0044 70.8204 92.9124 61.9125C101.82 53.0045 113.902 48 126.5 48L126.5 95.5L126.5 143Z" fill="#4353FF"/>
</svg>
