
<svg width="1440" height="16" viewBox="0 0 1440 16" fill="none" xmlns="http://www.w3.org/2000/svg">
<path d="M-8.57104 8.51343L-1.49998 1.44236L5.57109 8.51343" stroke="black" stroke-width="2"/>
<path d="M4.42896 8.51343L11.5 1.44236L18.5711 8.51343" stroke="black" stroke-width="2"/>
<path d="M17.429 8.51343L24.5 1.44236L31.5711 8.51343" stroke="black" stroke-width="2"/>
<path d="M30.429 8.51343L37.5 1.44236L44.5711 8.51343" stroke="black" stroke-width="2"/>
<path d="M43.429 8.51343L50.5 1.44236L57.5711 8.51343" stroke="black" stroke-width="2"/>
<path d="M56.429 8.51343L63.5 1.44236L70.5711 8.51343" stroke="black" stroke-width="2"/>
<path d="M69.429 8.51343L76.5 1.44236L83.5711 8.51343" stroke="black" stroke-width="2"/>
<path d="M82.429 8.51343L89.5 1.44236L96.5711 8.51343" stroke="black" stroke-width="2"/>
<path d="M95.429 8.51343L102.5 1.44236L109.571 8.51343" stroke="black" stroke-width="2"/>
<path d="M108.429 8.51343L115.5 1.44236L122.571 8.51343" stroke="black" stroke-width="2"/>
<path d="M121.429 8.51343L128.5 1.44236L135.571 8.51343" stroke="black" stroke-width="2"/>
<path d="M134.429 8.51343L141.5 1.44236L148.571 8.51343" stroke="black" stroke-width="2"/>
<path d="M147.429 8.51343L154.5 1.44236L161.571 8.51343" stroke="black" stroke-width="2"/>
<path d="M160.429 8.51343L167.5 1.44236L174.571 8.51343" stroke="black" stroke-width="2"/>
<path d="M173.429 8.51343L180.5 1.44236L187.571 8.51343" stroke="black" stroke-width="2"/>
<path d="M186.429 8.51343L193.5 1.44236L200.571 8.51343" stroke="black" stroke-width="2"/>
<path d="M199.429 8.51343L206.5 1.44236L213.571 8.51343" stroke="black" stroke-width="2"/>
<path d="M212.429 8.51343L219.5 1.44236L226.571 8.51343" stroke="black" stroke-width="2"/>
<path d="M225.429 8.51343L232.5 1.44236L239.571 8.51343" stroke="black" stroke-width="2"/>
<path d="M238.429 8.51343L245.5 1.44236L252.571 8.51343" stroke="black" stroke-width="2"/>
<path d="M251.429 8.51343L258.5 1.44236L265.571 8.51343" stroke="black" stroke-width="2"/>
<path d="M264.429 8.51343L271.5 1.44236L278.571 8.51343" stroke="black" stroke-width="2"/>
<path d="M277.429 8.51343L284.5 1.44236L291.571 8.51343" stroke="black" stroke-width="2"/>
<path d="M290.429 8.51343L297.5 1.44236L304.571 8.51343" stroke="black" stroke-width="2"/>
<path d="M303.429 8.51343L310.5 1.44236L317.571 8.51343" stroke="black" stroke-width="2"/>
<path d="M316.429 8.51343L323.5 1.44236L330.571 8.51343" stroke="black" stroke-width="2"/>
<path d="M329.429 8.51343L336.5 1.44236L343.571 8.51343" stroke="black" stroke-width="2"/>
<path d="M342.429 8.51343L349.5 1.44236L356.571 8.51343" stroke="black" stroke-width="2"/>
<path d="M355.429 8.51343L362.5 1.44236L369.571 8.51343" stroke="black" stroke-width="2"/>
<path d="M368.429 8.51343L375.5 1.44236L382.571 8.51343" stroke="black" stroke-width="2"/>
<path d="M381.429 8.51343L388.5 1.44236L395.571 8.51343" stroke="black" stroke-width="2"/>
<path d="M394.429 8.51343L401.5 1.44236L408.571 8.51343" stroke="black" stroke-width="2"/>
<path d="M407.429 8.51343L414.5 1.44236L421.571 8.51343" stroke="black" stroke-width="2"/>
<path d="M420.429 8.51343L427.5 1.44236L434.571 8.51343" stroke="black" stroke-width="2"/>
<path d="M433.429 8.51343L440.5 1.44236L447.571 8.51343" stroke="black" stroke-width="2"/>
<path d="M446.429 8.51343L453.5 1.44236L460.571 8.51343" stroke="black" stroke-width="2"/>
<path d="M459.429 8.51343L466.5 1.44236L473.571 8.51343" stroke="black" stroke-width="2"/>
<path d="M472.429 8.51343L479.5 1.44236L486.571 8.51343" stroke="black" stroke-width="2"/>
<path d="M485.429 8.51343L492.5 1.44236L499.571 8.51343" stroke="black" stroke-width="2"/>
<path d="M498.429 8.51343L505.5 1.44236L512.571 8.51343" stroke="black" stroke-width="2"/>
<path d="M511.429 8.51343L518.5 1.44236L525.571 8.51343" stroke="black" stroke-width="2"/>
<path d="M524.429 8.51343L531.5 1.44236L538.571 8.51343" stroke="black" stroke-width="2"/>
<path d="M537.429 8.51343L544.5 1.44236L551.571 8.51343" stroke="black" stroke-width="2"/>
<path d="M550.429 8.51343L557.5 1.44236L564.571 8.51343" stroke="black" stroke-width="2"/>
<path d="M563.429 8.51343L570.5 1.44236L577.571 8.51343" stroke="black" stroke-width="2"/>
<path d="M576.429 8.51343L583.5 1.44236L590.571 8.51343" stroke="black" stroke-width="2"/>
<path d="M589.429 8.51343L596.5 1.44236L603.571 8.51343" stroke="black" stroke-width="2"/>
<path d="M602.429 8.51343L609.5 1.44236L616.571 8.51343" stroke="black" stroke-width="2"/>
<path d="M615.429 8.51343L622.5 1.44236L629.571 8.51343" stroke="black" stroke-width="2"/>
<path d="M628.429 8.51343L635.5 1.44236L642.571 8.51343" stroke="black" stroke-width="2"/>
<path d="M641.429 8.51343L648.5 1.44236L655.571 8.51343" stroke="black" stroke-width="2"/>
<path d="M654.429 8.51343L661.5 1.44236L668.571 8.51343" stroke="black" stroke-width="2"/>
<path d="M667.429 8.51343L674.5 1.44236L681.571 8.51343" stroke="black" stroke-width="2"/>
<path d="M680.429 8.51343L687.5 1.44236L694.571 8.51343" stroke="black" stroke-width="2"/>
<path d="M693.429 8.51343L700.5 1.44236L707.571 8.51343" stroke="black" stroke-width="2"/>
<path d="M706.429 8.51343L713.5 1.44236L720.571 8.51343" stroke="black" stroke-width="2"/>
<path d="M719.429 8.51343L726.5 1.44236L733.571 8.51343" stroke="black" stroke-width="2"/>
<path d="M732.429 8.51343L739.5 1.44236L746.571 8.51343" stroke="black" stroke-width="2"/>
<path d="M745.429 8.51343L752.5 1.44236L759.571 8.51343" stroke="black" stroke-width="2"/>
<path d="M758.429 8.51343L765.5 1.44236L772.571 8.51343" stroke="black" stroke-width="2"/>
<path d="M771.429 8.51343L778.5 1.44236L785.571 8.51343" stroke="black" stroke-width="2"/>
<path d="M784.429 8.51343L791.5 1.44236L798.571 8.51343" stroke="black" stroke-width="2"/>
<path d="M797.429 8.51343L804.5 1.44236L811.571 8.51343" stroke="black" stroke-width="2"/>
<path d="M810.429 8.51343L817.5 1.44236L824.571 8.51343" stroke="black" stroke-width="2"/>
<path d="M823.429 8.51343L830.5 1.44236L837.571 8.51343" stroke="black" stroke-width="2"/>
<path d="M836.429 8.51343L843.5 1.44236L850.571 8.51343" stroke="black" stroke-width="2"/>
<path d="M849.429 8.51343L856.5 1.44236L863.571 8.51343" stroke="black" stroke-width="2"/>
<path d="M862.429 8.51343L869.5 1.44236L876.571 8.51343" stroke="black" stroke-width="2"/>
<path d="M875.429 8.51343L882.5 1.44236L889.571 8.51343" stroke="black" stroke-width="2"/>
<path d="M888.429 8.51343L895.5 1.44236L902.571 8.51343" stroke="black" stroke-width="2"/>
<path d="M901.429 8.51343L908.5 1.44236L915.571 8.51343" stroke="black" stroke-width="2"/>
<path d="M914.429 8.51343L921.5 1.44236L928.571 8.51343" stroke="black" stroke-width="2"/>
<path d="M927.429 8.51343L934.5 1.44236L941.571 8.51343" stroke="black" stroke-width="2"/>
<path d="M940.429 8.51343L947.5 1.44236L954.571 8.51343" stroke="black" stroke-width="2"/>
<path d="M953.429 8.51343L960.5 1.44236L967.571 8.51343" stroke="black" stroke-width="2"/>
<path d="M966.429 8.51343L973.5 1.44236L980.571 8.51343" stroke="black" stroke-width="2"/>
<path d="M979.429 8.51343L986.5 1.44236L993.571 8.51343" stroke="black" stroke-width="2"/>
<path d="M992.429 8.51343L999.5 1.44236L1006.57 8.51343" stroke="black" stroke-width="2"/>
<path d="M1005.43 8.51343L1012.5 1.44236L1019.57 8.51343" stroke="black" stroke-width="2"/>
<path d="M1018.43 8.51343L1025.5 1.44236L1032.57 8.51343" stroke="black" stroke-width="2"/>
<path d="M1031.43 8.51343L1038.5 1.44236L1045.57 8.51343" stroke="black" stroke-width="2"/>
<path d="M1044.43 8.51343L1051.5 1.44236L1058.57 8.51343" stroke="black" stroke-width="2"/>
<path d="M1057.43 8.51343L1064.5 1.44236L1071.57 8.51343" stroke="black" stroke-width="2"/>
<path d="M1070.43 8.51343L1077.5 1.44236L1084.57 8.51343" stroke="black" stroke-width="2"/>
<path d="M1083.43 8.51343L1090.5 1.44236L1097.57 8.51343" stroke="black" stroke-width="2"/>
<path d="M1096.43 8.51343L1103.5 1.44236L1110.57 8.51343" stroke="black" stroke-width="2"/>
<path d="M1109.43 8.51343L1116.5 1.44236L1123.57 8.51343" stroke="black" stroke-width="2"/>
<path d="M1122.43 8.51343L1129.5 1.44236L1136.57 8.51343" stroke="black" stroke-width="2"/>
<path d="M1135.43 8.51343L1142.5 1.44236L1149.57 8.51343" stroke="black" stroke-width="2"/>
<path d="M1148.43 8.51343L1155.5 1.44236L1162.57 8.51343" stroke="black" stroke-width="2"/>
<path d="M1161.43 8.51343L1168.5 1.44236L1175.57 8.51343" stroke="black" stroke-width="2"/>
<path d="M1174.43 8.51343L1181.5 1.44236L1188.57 8.51343" stroke="black" stroke-width="2"/>
<path d="M1187.43 8.51343L1194.5 1.44236L1201.57 8.51343" stroke="black" stroke-width="2"/>
<path d="M1200.43 8.51343L1207.5 1.44236L1214.57 8.51343" stroke="black" stroke-width="2"/>
<path d="M1213.43 8.51343L1220.5 1.44236L1227.57 8.51343" stroke="black" stroke-width="2"/>
<path d="M1226.43 8.51343L1233.5 1.44236L1240.57 8.51343" stroke="black" stroke-width="2"/>
<path d="M1239.43 8.51343L1246.5 1.44236L1253.57 8.51343" stroke="black" stroke-width="2"/>
<path d="M1252.43 8.51343L1259.5 1.44236L1266.57 8.51343" stroke="black" stroke-width="2"/>
<path d="M1265.43 8.51343L1272.5 1.44236L1279.57 8.51343" stroke="black" stroke-width="2"/>
<path d="M1278.43 8.51343L1285.5 1.44236L1292.57 8.51343" stroke="black" stroke-width="2"/>
<path d="M1291.43 8.51343L1298.5 1.44236L1305.57 8.51343" stroke="black" stroke-width="2"/>
<path d="M1304.43 8.51343L1311.5 1.44236L1318.57 8.51343" stroke="black" stroke-width="2"/>
<path d="M1317.43 8.51343L1324.5 1.44236L1331.57 8.51343" stroke="black" stroke-width="2"/>
<path d="M1330.43 8.51343L1337.5 1.44236L1344.57 8.51343" stroke="black" stroke-width="2"/>
<path d="M1343.43 8.51343L1350.5 1.44236L1357.57 8.51343" stroke="black" stroke-width="2"/>
<path d="M1356.43 8.51343L1363.5 1.44236L1370.57 8.51343" stroke="black" stroke-width="2"/>
<path d="M1369.43 8.51343L1376.5 1.44236L1383.57 8.51343" stroke="black" stroke-width="2"/>
<path d="M1382.43 8.51343L1389.5 1.44236L1396.57 8.51343" stroke="black" stroke-width="2"/>
<path d="M1395.43 8.51343L1402.5 1.44236L1409.57 8.51343" stroke="black" stroke-width="2"/>
<path d="M1408.43 8.51343L1415.5 1.44236L1422.57 8.51343" stroke="black" stroke-width="2"/>
<path d="M1421.43 8.51343L1428.5 1.44236L1435.57 8.51343" stroke="black" stroke-width="2"/>
<path d="M1434.43 8.51343L1441.5 1.44236L1448.57 8.51343" stroke="black" stroke-width="2"/>
</svg>
