<svg width="177" height="200" viewBox="0 0 177 200" fill="none" xmlns="http://www.w3.org/2000/svg">
<g clip-path="url(#clip0_147_1983)">
<path d="M0.523438 1.19531L16.4772 180.129L88.063 199.999L159.851 180.097L175.821 1.19531H0.523438V1.19531ZM142.675 42.1192L137.279 102.594L133.542 144.32L133.215 148.026L88.2031 160.507L43.2538 148.026L40.1782 113.565H62.2052L63.7702 131.068L88.2343 137.663L88.2966 137.647H88.3121L112.714 131.06L115.276 102.602H64.0505L63.6145 97.6733L62.6101 86.5469L62.0884 80.6606H117.222L119.231 58.1898H35.2496L34.8136 53.2534L33.8092 42.127L33.2875 36.2407H143.212L142.683 42.127L142.675 42.1192Z" fill="black"/>
</g>
<defs>
<clipPath id="clip0_147_1983">
<rect width="176.166" height="200" fill="white" transform="translate(0.0917969)"/>
</clipPath>
</defs>
</svg>
