<svg width="135" height="200" viewBox="0 0 135 200" fill="none" xmlns="http://www.w3.org/2000/svg">
<g clip-path="url(#clip0_147_1985)">
<path d="M67.0762 100.037C67.0762 81.8113 81.9913 66.9609 100.465 66.9609C118.863 66.9609 133.853 81.7363 133.853 100.037C133.853 118.262 118.938 133.113 100.465 133.113C82.067 133.113 67.0762 118.262 67.0762 100.037Z" fill="#1ABCFE"/>
<path d="M0.373047 166.115C0.373047 147.889 15.2881 133.039 33.7616 133.039H67.1502V166.115C67.1502 184.34 52.2351 199.191 33.7616 199.191C15.2881 199.191 0.373047 184.415 0.373047 166.115V166.115Z" fill="#0ACF83"/>
<path d="M67.0762 0.885549V66.9624H100.465C118.863 66.9624 133.853 52.187 133.853 33.8865C133.853 15.661 118.938 0.810547 100.465 0.810547H67.0762V0.885549Z" fill="#FF7262"/>
<path d="M0.373047 33.9607C0.373047 52.1862 15.2881 67.0366 33.7616 67.0366H67.1502V0.884766H33.7616C15.2881 0.884766 0.373047 15.6602 0.373047 33.9607Z" fill="#F24E1E"/>
<path d="M0.373047 100.037C0.373047 118.262 15.2881 133.113 33.7616 133.113H67.1502V66.9609H33.7616C15.2881 66.9609 0.373047 81.8113 0.373047 100.037Z" fill="#A259FF"/>
</g>
<defs>
<clipPath id="clip0_147_1985">
<rect width="134.594" height="200" fill="white" transform="translate(0.257812)"/>
</clipPath>
</defs>
</svg>
