<svg width="146" height="200" viewBox="0 0 146 200" fill="none" xmlns="http://www.w3.org/2000/svg">
<g clip-path="url(#clip0_149_67)">
<path d="M5.41606 130.108L25.124 3.85716C25.2654 2.92065 25.6999 2.05247 26.3656 1.37629C27.0313 0.700105 27.8943 0.250422 28.8316 0.0913022C29.7689 -0.0678176 30.7327 0.0717424 31.5857 0.4901C32.4387 0.908457 33.1374 1.58427 33.5822 2.42126L54.7735 42.0205L5.41606 130.108ZM145.364 160.752L126.614 44.552C126.485 43.7308 126.13 42.9614 125.588 42.3297C125.046 41.6981 124.338 41.229 123.543 40.975C122.749 40.721 121.899 40.692 121.089 40.8913C120.279 41.0905 119.54 41.5103 118.956 42.1035L0.632812 160.76L66.0983 197.504C68.1188 198.635 70.3973 199.229 72.7149 199.229C75.0324 199.229 77.311 198.635 79.3314 197.504L145.364 160.752ZM92.1645 59.3509L76.9981 30.4503C76.6155 29.7235 76.0405 29.1149 75.3354 28.6902C74.6304 28.2655 73.8221 28.041 72.9982 28.041C72.1743 28.041 71.366 28.2655 70.661 28.6902C69.9559 29.1149 69.3809 29.7235 68.9983 30.4503L2.41611 149.298L92.1645 59.3509Z" fill="black"/>
</g>
<defs>
<clipPath id="clip0_149_67">
<rect width="145.6" height="200" fill="white" transform="translate(0.199219)"/>
</clipPath>
</defs>
</svg>
