<svg width="201" height="200" viewBox="0 0 201 200" fill="none" xmlns="http://www.w3.org/2000/svg">
<g clip-path="url(#clip0_147_1998)">
<path d="M195.938 90.9434L108.756 3.76565C103.738 -1.25522 95.5947 -1.25522 90.5707 3.76565L72.4669 21.8695L95.4325 44.8351C100.769 43.0317 106.889 44.2415 111.143 48.4956C115.418 52.7771 116.619 58.9492 114.772 64.3032L136.904 86.4365C142.259 84.5918 148.438 85.7852 152.714 90.069C158.691 96.0438 158.691 105.728 152.714 111.706C146.736 117.686 137.052 117.686 131.07 111.706C126.574 107.206 125.463 100.603 127.739 95.0641L107.099 74.4237L107.097 128.741C108.593 129.481 109.959 130.458 111.143 131.635C117.12 137.609 117.12 147.294 111.143 153.277C105.165 159.254 95.4762 159.254 89.506 153.277C83.5289 147.294 83.5289 137.61 89.506 131.635C90.9384 130.202 92.6407 129.067 94.5144 128.296V73.4729C92.638 72.7069 90.9347 71.5713 89.506 70.1337C84.9774 65.6112 83.8885 58.9664 86.209 53.4058L63.5702 30.7646L3.79085 90.5401C-1.23237 95.5657 -1.23237 103.71 3.79085 108.731L90.9748 195.911C95.9941 200.932 104.136 200.932 109.161 195.911L195.937 109.136C200.959 104.113 200.959 95.9642 195.937 90.9434" fill="#DE4C36"/>
</g>
<defs>
<clipPath id="clip0_147_1998">
<rect width="200.639" height="200" fill="white" transform="translate(0.0234375)"/>
</clipPath>
</defs>
</svg>
