<svg width="177" height="200" viewBox="0 0 177 200" fill="none" xmlns="http://www.w3.org/2000/svg">
<g clip-path="url(#clip0_147_2019)">
<path d="M1.00969 0.728516L16.973 179.789L88.6105 199.676L160.449 179.758L176.428 0.728516H1.00195H1.00969ZM34.1743 43.2222L33.6482 37.3272H88.6414V59.2849H57.6511L59.6552 81.7756H88.6414V103.733H39.5754L34.1743 43.2145V43.2222ZM139.154 87.6784L133.993 145.493L133.661 149.202L88.6105 161.687L43.6223 149.202L40.5426 114.72H62.5879L64.151 132.235L88.6259 138.833L113.116 132.22L115.662 103.741H88.6956V81.7833H139.665L139.131 87.6784H139.154ZM143.132 43.2222L142.134 54.3556L141.692 59.2926H88.7188V37.3349H143.658L143.132 43.2222Z" fill="black"/>
</g>
<defs>
<clipPath id="clip0_147_2019">
<rect width="176.147" height="200" fill="white" transform="translate(0.662109)"/>
</clipPath>
</defs>
</svg>
