<svg width="201" height="200" viewBox="0 0 201 200" fill="none" xmlns="http://www.w3.org/2000/svg">
<g clip-path="url(#clip0_149_60)">
<path d="M0.798828 0H200.799V200H0.798828V0ZM184.415 152.3C182.957 143.175 177.015 135.508 159.39 128.358C153.257 125.483 146.44 123.483 144.415 118.858C143.657 116.108 143.54 114.608 144.032 112.983C145.282 107.6 151.657 105.983 156.657 107.483C159.907 108.483 162.907 110.983 164.79 114.983C173.407 109.35 173.407 109.35 179.415 105.608C177.165 102.108 176.049 100.6 174.532 99.1083C169.282 93.2333 162.29 90.2333 150.915 90.4917L145.04 91.2333C139.407 92.6083 134.04 95.6083 130.79 99.6083C121.29 110.367 124.032 129.117 135.532 136.867C146.907 145.367 163.54 147.233 165.665 155.242C167.665 164.992 158.415 168.117 149.282 166.992C142.524 165.492 138.782 162.108 134.657 155.858L119.407 164.617C121.157 168.617 123.157 170.358 126.157 173.858C140.657 188.492 176.907 187.742 183.415 165.492C183.657 164.742 185.415 159.617 184.032 151.742L184.415 152.3V152.3ZM109.557 91.925H90.8238C90.8238 108.075 90.7488 124.125 90.7488 140.3C90.7488 150.567 91.2738 159.992 89.5988 162.892C86.8488 168.633 79.7655 167.9 76.5488 166.892C73.2488 165.258 71.5738 163.008 69.6322 159.767C69.1072 158.892 68.7155 158.133 68.5738 158.133L53.3655 167.508C55.9072 172.758 59.6155 177.275 64.3988 180.15C71.5238 184.4 81.0988 185.775 91.1238 183.525C97.6488 181.642 103.274 177.767 106.215 171.767C110.465 164.017 109.565 154.517 109.524 143.883C109.624 126.767 109.524 109.642 109.524 92.3917L109.557 91.925V91.925Z" fill="#F7DF1E"/>
</g>
<defs>
<clipPath id="clip0_149_60">
<rect width="200" height="200" fill="white" transform="translate(0.798828)"/>
</clipPath>
</defs>
</svg>
