<svg width="201" height="200" viewBox="0 0 201 200" fill="none" xmlns="http://www.w3.org/2000/svg">
<g clip-path="url(#clip0_149_65)">
<path d="M97.2347 0C95.7655 0 94.653 0.0108333 94.248 0.0558333C93.818 0.1 92.4488 0.230833 91.218 0.329167C62.8113 2.89 36.2038 18.215 19.3513 41.7692C9.96716 54.8667 3.96549 69.7217 1.69883 85.4583C0.897161 90.95 0.798828 92.5725 0.798828 100.02C0.798828 107.467 0.898828 109.09 1.69883 114.583C7.13216 152.133 33.858 183.682 70.1047 195.371C76.5955 197.463 83.438 198.89 91.2188 199.75C94.2488 200.083 107.347 200.083 110.377 199.75C123.808 198.264 135.187 194.942 146.408 189.214C148.129 188.334 148.461 188.1 148.227 187.903C148.07 187.788 140.738 177.955 131.941 166.07L115.95 144.47L95.9105 114.817C84.8847 98.5142 75.813 85.1842 75.7347 85.1842C75.6563 85.1625 75.5788 98.34 75.5388 114.426C75.483 142.594 75.4613 143.728 75.1088 144.393C74.6005 145.351 74.2088 145.741 73.3888 146.171C72.7638 146.482 72.2155 146.542 69.2638 146.542H65.8805L64.9822 145.975C64.4251 145.626 63.9725 145.133 63.6722 144.548L63.2613 143.668L63.3055 104.477L63.3613 65.265L63.9663 64.5025C64.2797 64.0917 64.9447 63.565 65.413 63.3108C66.2147 62.9192 66.528 62.88 69.9097 62.88C73.8988 62.88 74.563 63.0358 75.5988 64.1692C75.893 64.4833 86.743 80.825 99.7238 100.509C112.867 120.433 126.018 140.351 139.177 160.264L155.012 184.249L155.812 183.722C162.91 179.108 170.416 172.54 176.36 165.699C189.009 151.175 197.162 133.466 199.899 114.582C200.7 109.09 200.797 107.466 200.797 100.02C200.797 92.5725 200.697 90.95 199.899 85.4567C194.464 47.9067 167.739 16.3575 131.493 4.66917C125.1 2.59667 118.296 1.16917 110.672 0.309167C109.264 0.1625 101.643 0.00416667 97.2363 0.000833333L97.2347 0ZM131.139 60.1417C134.033 60.1417 134.54 60.1858 135.186 60.5333C136.125 61.0017 136.886 61.9017 137.161 62.8392C137.316 63.3475 137.356 74.2167 137.316 98.7092L137.26 133.855L131.064 124.355L124.846 114.855V89.305C124.846 72.7883 124.924 63.5025 125.041 63.0533C125.354 61.9592 126.038 61.0983 126.977 60.5908C127.778 60.1792 128.071 60.1408 131.141 60.1408L131.139 60.1417Z" fill="black"/>
</g>
<defs>
<clipPath id="clip0_149_65">
<rect width="200" height="200" fill="white" transform="translate(0.798828)"/>
</clipPath>
</defs>
</svg>
