<svg width="559" height="200" viewBox="0 0 559 200" fill="none" xmlns="http://www.w3.org/2000/svg">
<g clip-path="url(#clip0_147_2006)">
<path d="M375.65 0.244783C375.126 0.245131 374.611 0.38195 374.156 0.641767C373.704 0.906336 373.328 1.28413 373.067 1.73794C372.805 2.19175 372.666 2.70591 372.663 3.22977V79.3648C372.663 80.1118 372.316 80.7812 371.669 81.1561C371.352 81.3409 370.991 81.4383 370.624 81.4383C370.257 81.4383 369.896 81.3409 369.579 81.1561L357.138 73.991C356.231 73.466 355.201 73.1895 354.153 73.1895C353.104 73.1895 352.074 73.466 351.167 73.991L301.505 102.653C299.649 103.725 298.52 105.784 298.52 107.928V165.253C298.52 167.394 299.65 169.356 301.505 170.428L351.167 199.091C352.074 199.617 353.104 199.894 354.153 199.894C355.201 199.894 356.231 199.617 357.138 199.091L406.8 170.428C407.709 169.904 408.464 169.15 408.988 168.242C409.513 167.333 409.788 166.302 409.786 165.253V22.3389C409.785 21.2653 409.499 20.2112 408.957 19.2844C408.415 18.3575 407.637 17.5911 406.702 17.0633L377.142 0.542175C376.679 0.283513 376.164 0.237867 375.65 0.244783V0.244783ZM56.1819 71.8014C55.2358 71.8388 54.345 72.0047 53.4957 72.4972L3.83267 101.16C2.92294 101.683 2.16764 102.437 1.6434 103.346C1.11916 104.254 0.844638 105.286 0.847681 106.335L0.947273 183.268C0.947273 184.337 1.49918 185.332 2.43976 185.855C2.89071 186.126 3.40687 186.269 3.93295 186.269C4.45903 186.269 4.97519 186.126 5.42613 185.855L34.8845 168.936C36.7505 167.827 37.9691 165.899 37.9691 163.76V127.833C37.9691 125.689 39.0964 123.722 40.9555 122.657L53.4943 115.392C54.4009 114.865 55.432 114.59 56.4807 114.595C57.5043 114.595 58.5555 114.851 59.4657 115.392L72.0059 122.657C72.9165 123.179 73.6725 123.933 74.1971 124.842C74.7216 125.751 74.996 126.783 74.9923 127.833V163.759C74.9923 165.898 76.2234 167.84 78.0769 168.935L107.535 185.855C107.986 186.126 108.502 186.269 109.028 186.269C109.555 186.269 110.071 186.126 110.522 185.855C110.976 185.592 111.352 185.215 111.615 184.76C111.877 184.306 112.015 183.791 112.016 183.267L112.112 106.335C112.118 105.285 111.845 104.253 111.32 103.343C110.796 102.434 110.039 101.681 109.127 101.16L59.4657 72.4972C58.6261 72.0047 57.7325 71.8401 56.7795 71.8014H56.1819ZM502.441 72.4972C501.404 72.4972 500.387 72.76 499.456 73.2939L449.794 101.957C448.885 102.48 448.13 103.234 447.606 104.143C447.081 105.051 446.806 106.082 446.808 107.132V164.456C446.808 166.613 448.023 168.566 449.893 169.632L499.157 197.698C500.976 198.735 503.198 198.814 505.029 197.795L534.886 181.175C535.833 180.65 536.474 179.667 536.478 178.589C536.483 178.063 536.347 177.546 536.085 177.091C535.822 176.636 535.443 176.259 534.985 176.001L485.025 147.338C484.09 146.804 483.433 145.723 483.433 144.65V126.737C483.433 125.665 484.097 124.683 485.025 124.149L500.55 115.192C501.004 114.929 501.519 114.791 502.043 114.791C502.568 114.791 503.083 114.929 503.537 115.192L519.06 124.149C519.515 124.411 519.893 124.787 520.155 125.242C520.418 125.696 520.555 126.211 520.554 126.736V140.868C520.553 141.393 520.69 141.908 520.952 142.362C521.215 142.817 521.592 143.194 522.047 143.455C522.978 143.993 524.104 143.994 525.032 143.455L554.79 126.141C555.698 125.616 556.452 124.861 556.976 123.953C557.5 123.044 557.776 122.014 557.777 120.965V107.133C557.777 104.996 556.643 103.03 554.79 101.957L505.428 73.2939C504.52 72.769 503.489 72.4945 502.441 72.4985V72.4972ZM353.953 115.293C354.213 115.293 354.517 115.356 354.749 115.49L371.769 125.343C372.231 125.61 372.565 126.104 372.565 126.636V146.342C372.565 146.877 372.233 147.369 371.769 147.636L354.749 157.489C354.522 157.619 354.265 157.687 354.003 157.687C353.741 157.687 353.484 157.619 353.257 157.489L336.239 147.636C335.776 147.368 335.443 146.877 335.443 146.342V126.636C335.443 126.102 335.777 125.613 336.239 125.343L353.257 115.492C353.466 115.362 353.708 115.293 353.954 115.294V115.293H353.953Z" fill="#404137"/>
<path d="M205.365 72.1973C204.331 72.1973 203.307 72.4601 202.38 72.994L152.719 101.557C150.861 102.627 149.732 104.69 149.732 106.832V164.156C149.732 166.3 150.863 168.259 152.719 169.332L202.38 197.994C203.287 198.521 204.317 198.798 205.366 198.798C206.415 198.798 207.445 198.521 208.352 197.994L258.013 169.332C258.923 168.809 259.677 168.054 260.202 167.146C260.726 166.237 261.001 165.206 260.998 164.156V106.832C260.998 104.688 259.87 102.627 258.013 101.557L208.352 72.994C207.444 72.4697 206.414 72.1949 205.365 72.1973V72.1973ZM502.341 123.353C502.143 123.353 501.923 123.353 501.745 123.452L492.191 129.025C492.013 129.124 491.864 129.269 491.759 129.443C491.654 129.618 491.597 129.817 491.593 130.021V140.968C491.593 141.38 491.831 141.758 492.191 141.964L501.745 147.437C502.103 147.645 502.485 147.645 502.839 147.437L512.393 141.963C512.57 141.863 512.719 141.719 512.823 141.545C512.928 141.37 512.986 141.172 512.99 140.968V130.02C512.986 129.817 512.928 129.618 512.823 129.443C512.719 129.269 512.57 129.125 512.393 129.025L502.839 123.451C502.662 123.347 502.54 123.354 502.341 123.354V123.353Z" fill="#83CD29"/>
</g>
<defs>
<clipPath id="clip0_147_2006">
<rect width="557.224" height="200" fill="white" transform="translate(0.798828)"/>
</clipPath>
</defs>
</svg>
