<svg width="229" height="200" viewBox="0 0 229 200" fill="none" xmlns="http://www.w3.org/2000/svg">
<g clip-path="url(#clip0_147_2015)">
<path d="M186.444 65.0237C184.047 64.2247 181.65 63.4701 179.253 62.7599C179.653 61.1175 180.008 59.4751 180.363 57.8327C185.823 31.3767 182.227 10.1143 170.109 3.10081C158.435 -3.60196 139.392 3.36714 120.127 20.1463C118.218 21.7887 116.354 23.5198 114.578 25.251C113.38 24.0969 112.137 22.9428 110.894 21.8331C90.6967 3.89981 70.4553 -3.64635 58.337 3.41153C46.707 10.1587 43.2447 30.1782 48.1275 55.2137C48.6158 57.6995 49.1484 60.1409 49.7699 62.6267C46.929 63.4257 44.1325 64.3135 41.5135 65.2457C17.8097 73.4577 0.808594 86.4193 0.808594 99.8249C0.808594 113.674 18.9194 127.568 43.5554 136.002C45.5529 136.668 47.5504 137.334 49.5923 137.911C48.9265 140.574 48.3494 143.193 47.8168 145.901C43.1559 170.537 46.7958 190.068 58.4258 196.771C70.4109 203.696 90.5636 196.593 110.184 179.415C111.737 178.039 113.291 176.618 114.844 175.109C116.798 177.018 118.839 178.838 120.881 180.613C139.88 196.948 158.657 203.562 170.242 196.86C182.227 189.935 186.134 168.939 181.073 143.371C180.674 141.418 180.23 139.42 179.741 137.378C181.162 136.979 182.538 136.535 183.914 136.091C209.527 127.613 228.081 113.896 228.081 99.8249C228.081 86.375 210.592 73.3245 186.444 65.0237V65.0237ZM126.386 27.3373C142.898 12.9552 158.301 7.31778 165.315 11.3572C172.817 15.6629 175.702 33.0635 170.997 55.924C170.686 57.4332 170.375 58.898 169.976 60.3629C160.121 58.1434 150.134 56.5454 140.102 55.6576C134.331 47.4012 128.028 39.5 121.192 32.087C122.923 30.4446 124.61 28.8909 126.386 27.3373V27.3373ZM75.0273 122.863C77.2912 126.725 79.5994 130.587 82.0408 134.36C75.1161 133.605 68.2358 132.495 61.4442 131.03C63.3974 124.638 65.8388 118.024 68.6797 111.277C70.7216 115.184 72.8079 119.045 75.0273 122.863V122.863ZM61.5774 69.4627C67.9695 68.0422 74.761 66.8881 81.8189 66.0003C79.4663 69.6846 77.158 73.4577 74.983 77.2752C72.8079 81.0482 70.6772 84.9101 68.6797 88.8164C65.8832 82.2024 63.5305 75.7215 61.5774 69.4627ZM73.7401 100.047C76.6697 93.9211 79.8658 87.9286 83.2393 82.0248C86.6129 76.121 90.2528 70.3948 94.0703 64.7574C100.729 64.2691 107.52 64.0028 114.445 64.0028C121.37 64.0028 128.206 64.2691 134.82 64.7574C138.593 70.3504 142.188 76.0767 145.606 81.936C149.024 87.7954 152.22 93.7879 155.239 99.8693C152.265 105.995 149.069 112.032 145.651 117.98C142.277 123.884 138.681 129.61 134.908 135.292C128.294 135.78 121.414 136.002 114.445 136.002C107.476 136.002 100.729 135.78 94.2035 135.381C90.3416 129.743 86.7017 123.973 83.2837 118.069C79.8658 112.165 76.7141 106.173 73.7401 100.047ZM153.907 122.774C156.171 118.868 158.301 114.917 160.388 110.922C163.229 117.359 165.714 123.884 167.89 130.587C161.009 132.14 154.04 133.339 147.027 134.138C149.424 130.409 151.687 126.592 153.907 122.774ZM160.299 88.8164C158.213 84.9101 156.082 81.0039 153.863 77.1864C151.687 73.4133 149.424 69.6846 147.071 66.0003C154.218 66.8881 161.054 68.0866 167.446 69.5514C165.404 76.121 163.007 82.5131 160.299 88.8164V88.8164ZM114.534 38.8785C119.195 43.9389 123.589 49.2656 127.673 54.7698C118.884 54.3703 110.05 54.3703 101.261 54.7698C105.612 49.0436 110.095 43.7169 114.534 38.8785ZM63.0423 11.6679C70.4996 7.31778 87.0568 13.5323 104.502 28.9797C105.612 29.9563 106.721 31.0216 107.875 32.087C100.995 39.5 94.6474 47.4012 88.8324 55.6576C78.8004 56.5454 68.8572 58.099 59.0028 60.2741C58.4258 58.0102 57.9375 55.702 57.4492 53.3938C53.2766 31.9094 56.0288 15.7073 63.0423 11.6679V11.6679ZM52.1669 128.678C50.3026 128.145 48.4826 127.568 46.6626 126.947C37.2077 123.973 26.4656 119.267 18.6974 113.097C14.2141 109.99 11.1957 105.196 10.3523 99.8249C10.3523 91.7017 24.3793 81.3146 44.6207 74.2567C47.1509 73.3689 49.7255 72.5699 52.3001 71.8153C55.3185 81.4477 58.9584 90.9026 63.1754 100.047C58.9141 109.324 55.2298 118.912 52.1669 128.678V128.678ZM103.925 172.179C96.6005 178.882 88.1222 184.209 78.8892 187.849C73.962 190.201 68.2802 190.423 63.2198 188.426C56.1619 184.342 53.2322 168.673 57.2273 147.588C57.7156 145.102 58.2482 142.616 58.8697 140.175C68.8129 142.305 78.8448 143.77 89.0099 144.525C94.8693 152.826 101.306 160.771 108.186 168.229C106.766 169.605 105.345 170.936 103.925 172.179ZM114.8 161.393C110.272 156.51 105.745 151.094 101.35 145.279C105.612 145.457 110.006 145.546 114.445 145.546C119.017 145.546 123.5 145.457 127.939 145.235C123.855 150.872 119.461 156.244 114.8 161.393V161.393ZM172.817 174.709C172.417 180.125 169.754 185.185 165.493 188.603C158.435 192.687 143.387 187.36 127.14 173.422C125.276 171.824 123.412 170.093 121.503 168.317C128.294 160.816 134.553 152.87 140.235 144.525C150.4 143.681 160.521 142.128 170.509 139.864C170.952 141.684 171.352 143.504 171.707 145.279C173.882 154.867 174.237 164.855 172.817 174.709V174.709ZM180.896 126.991C179.653 127.391 178.41 127.79 177.123 128.145C174.015 118.468 170.198 109.013 165.803 99.8249C170.065 90.7695 173.66 81.4477 176.679 71.9041C178.987 72.5699 181.206 73.2801 183.337 73.9904C204.022 81.0926 218.538 91.6573 218.538 99.7361C218.538 108.436 203.046 119.667 180.896 126.991ZM114.445 120.333C125.675 120.333 134.775 111.233 134.775 100.002C134.775 88.772 125.675 79.6722 114.445 79.6722C103.214 79.6722 94.1147 88.772 94.1147 100.002C94.1147 111.233 103.214 120.333 114.445 120.333Z" fill="black"/>
</g>
<defs>
<clipPath id="clip0_147_2015">
<rect width="227.273" height="200" fill="white" transform="translate(0.808594)"/>
</clipPath>
</defs>
</svg>
