<svg width="201" height="200" viewBox="0 0 201 200" fill="none" xmlns="http://www.w3.org/2000/svg">
<g clip-path="url(#clip0_147_2000)">
<path fill-rule="evenodd" clip-rule="evenodd" d="M42.1961 126.372C42.1961 137.981 32.827 147.35 21.2182 147.35C9.60932 147.35 0.240234 137.95 0.240234 126.372C0.240234 114.795 9.60932 105.395 21.2182 105.395H42.1961V126.372ZM52.6693 126.372C52.6693 114.764 62.0383 105.395 73.6472 105.395C85.256 105.395 94.6251 114.764 94.6251 126.372V178.801C94.6251 190.41 85.256 199.779 73.6472 199.779C62.0383 199.779 52.6693 190.41 52.6693 178.801V126.372Z" fill="#E01E5A"/>
<path fill-rule="evenodd" clip-rule="evenodd" d="M73.6467 42.1765C62.0379 42.1765 52.6688 32.8075 52.6688 21.1986C52.6688 9.58979 62.0379 0.220703 73.6467 0.220703C85.2555 0.220703 94.6246 9.58979 94.6246 21.1986V42.1765H73.6467ZM73.6467 52.8075C85.2555 52.8075 94.6246 62.1765 94.6246 73.7854C94.6246 85.3942 85.2555 94.7633 73.6467 94.7633H21.0599C9.45112 94.7633 0.0820312 85.3627 0.0820312 73.7854C0.0820312 62.2081 9.45112 52.8075 21.0599 52.8075H73.6467Z" fill="#36C5F0"/>
<path fill-rule="evenodd" clip-rule="evenodd" d="M157.685 73.7854C157.685 62.1765 167.054 52.8075 178.663 52.8075C190.272 52.8075 199.641 62.1765 199.641 73.7854C199.641 85.3942 190.272 94.7633 178.663 94.7633H157.685V73.7854ZM147.212 73.7854C147.212 85.3942 137.843 94.7633 126.234 94.7633C114.625 94.7633 105.256 85.3942 105.256 73.7854V21.1986C105.256 9.58979 114.625 0.220703 126.234 0.220703C137.843 0.220703 147.212 9.58979 147.212 21.1986V73.7854Z" fill="#2EB67D"/>
<path fill-rule="evenodd" clip-rule="evenodd" d="M126.234 157.824C137.843 157.824 147.212 167.193 147.212 178.801C147.212 190.41 137.843 199.779 126.234 199.779C114.625 199.779 105.256 190.41 105.256 178.801V157.824H126.234ZM126.234 147.35C114.625 147.35 105.256 137.981 105.256 126.372C105.256 114.764 114.625 105.395 126.234 105.395H178.821C190.429 105.395 199.798 114.764 199.798 126.372C199.798 137.981 190.429 147.35 178.821 147.35H126.234Z" fill="#ECB22E"/>
</g>
<defs>
<clipPath id="clip0_147_2000">
<rect width="200" height="200" fill="white" transform="translate(0.0820312)"/>
</clipPath>
</defs>
</svg>
