<svg width="341" height="200" viewBox="0 0 341 200" fill="none" xmlns="http://www.w3.org/2000/svg">
<g clip-path="url(#clip0_147_2013)">
<path d="M166.762 0C122.318 0 94.5402 22.2222 83.429 66.6667C100.096 44.4444 119.54 36.1111 141.762 41.6667C154.443 44.8333 163.498 54.0278 173.54 64.2222C189.887 80.8055 208.79 100 250.096 100C294.54 100 322.318 77.7778 333.429 33.3333C316.762 55.5555 297.318 63.8889 275.096 58.3333C262.415 55.1667 253.36 45.9722 243.318 35.7778C226.985 19.1944 208.082 0 166.762 0ZM83.429 100C38.9846 100 11.2068 122.222 0.0957031 166.667C16.7624 144.444 36.2068 136.111 58.429 141.667C71.1096 144.833 80.1651 154.028 90.2068 164.222C106.554 180.806 125.457 200 166.762 200C211.207 200 238.985 177.778 250.096 133.333C233.429 155.556 213.985 163.889 191.762 158.333C179.082 155.167 170.026 145.972 159.985 135.778C143.651 119.194 124.748 100 83.429 100Z" fill="black"/>
</g>
<defs>
<clipPath id="clip0_147_2013">
<rect width="340" height="200" fill="white" transform="translate(0.0820312)"/>
</clipPath>
</defs>
</svg>
