<svg width="201" height="200" viewBox="0 0 201 200" fill="none" xmlns="http://www.w3.org/2000/svg">
<g clip-path="url(#clip0_147_2011)">
<path d="M9.45703 0C4.26536 0 0.0820312 4.18333 0.0820312 9.375V190.625C0.0820312 195.817 4.26536 200 9.45703 200H190.707C195.899 200 200.082 195.817 200.082 190.625V9.375C200.082 4.18333 195.899 0 190.707 0H9.45703ZM154.149 81.25C159.249 81.25 163.765 81.5583 167.707 82.175C171.425 82.732 175.073 83.6818 178.59 85.0083V105.492C176.902 104.324 175.108 103.317 173.232 102.483C171.297 101.613 169.3 100.889 167.257 100.317C163.387 99.2383 159.391 98.6778 155.374 98.65C152.874 98.65 150.599 98.8833 148.549 99.3667C146.722 99.7574 144.969 100.438 143.357 101.383C141.94 102.25 140.857 103.292 140.082 104.5C139.303 105.718 138.897 107.137 138.915 108.583C138.915 110.217 139.357 111.692 140.215 112.992C141.082 114.292 142.315 115.525 143.907 116.692C145.499 117.858 147.432 118.992 149.707 120.108C151.982 121.233 154.557 122.392 157.424 123.575C161.34 125.217 164.857 126.967 167.974 128.808C171.09 130.658 173.765 132.75 175.999 135.083C178.232 137.408 179.932 140.067 181.115 143.058C182.299 146.05 182.899 149.525 182.899 153.5C182.899 158.975 181.857 163.583 179.79 167.3C177.771 170.966 174.873 174.072 171.357 176.342C167.567 178.745 163.366 180.429 158.965 181.308C154.249 182.308 149.274 182.808 144.049 182.808C138.906 182.831 133.773 182.373 128.715 181.442C124.34 180.685 120.096 179.301 116.115 177.333V155.417C123.647 161.826 133.201 165.368 143.09 165.417C145.865 165.417 148.29 165.167 150.357 164.667C152.432 164.167 154.157 163.467 155.549 162.583C156.932 161.683 157.965 160.633 158.657 159.417C159.421 158 159.769 156.396 159.66 154.79C159.551 153.184 158.989 151.642 158.04 150.342C156.802 148.703 155.288 147.293 153.565 146.175C151.429 144.759 149.18 143.521 146.84 142.475C144.067 141.209 141.27 139.997 138.449 138.842C130.799 135.65 125.099 131.742 121.34 127.133C117.59 122.525 115.707 116.95 115.707 110.425C115.707 105.308 116.732 100.917 118.782 97.2417C120.832 93.5667 123.615 90.5417 127.149 88.1667C130.886 85.7012 135.035 83.9259 139.399 82.925C144.232 81.7855 149.183 81.2232 154.149 81.25V81.25ZM28.207 82.8167H107.899V100.867H79.2987V181.25H56.657V100.867H28.207V82.8167Z" fill="black"/>
</g>
<defs>
<clipPath id="clip0_147_2011">
<rect width="200" height="200" fill="white" transform="translate(0.0820312)"/>
</clipPath>
</defs>
</svg>
