
<svg width="22" height="32" viewBox="0 0 22 32" fill="none" xmlns="http://www.w3.org/2000/svg">
<path fill-rule="evenodd" clip-rule="evenodd" d="M11.5952 0.0758057C9.24475 0.909841 7.04593 3.33613 4.84711 7.27884C1.5868 13.2687 -2.58338 21.7607 3.17904 28.5088C5.83279 31.6175 10.3063 33.4372 16.0687 30.556C20.6938 28.2055 22.0586 21.4574 20.3147 18.3488C16.8269 11.8281 13.3391 10.2359 12.4293 6.21734C11.8227 3.48777 11.5194 1.44059 11.5952 0.0758057Z" fill="url(#paint0_linear_3_28)"/>
<path fill-rule="evenodd" clip-rule="evenodd" d="M11.5952 0C9.24475 0.834035 6.97011 3.26032 4.84711 7.20303C1.5868 13.1929 -2.58338 21.6849 3.17904 28.433C5.83279 31.5417 10.2304 32.5274 12.6567 30.7077C14.249 29.4945 15.3105 28.3572 15.917 25.9309C16.5994 23.2013 16.0687 19.6377 15.6896 17.8938C15.2346 15.7708 15.083 13.4962 15.2346 10.9183C15.2346 10.9183 15.1588 10.9183 15.1588 10.8425C13.8699 9.32603 12.96 7.96124 12.5051 6.06571C11.8227 3.41196 11.5194 1.36478 11.5952 0Z" fill="url(#paint1_linear_3_28)"/>
<path fill-rule="evenodd" clip-rule="evenodd" d="M9.62393 1.06152C7.42511 2.80541 5.83286 5.68663 4.77136 9.70516C3.17911 15.7709 3.02747 21.3816 3.55822 24.7178C4.61972 31.0868 10.3063 33.4372 16.0687 30.4802C19.6323 28.6605 21.1488 24.7936 21.073 20.5476C20.9971 16.15 12.5051 11.2216 11.0645 7.58216C10.0789 5.08006 9.62393 2.95706 9.62393 1.06152Z" fill="url(#paint2_linear_3_28)"/>
<path fill-rule="evenodd" clip-rule="evenodd" d="M15.159 12.4347C17.8128 15.7708 18.3435 18.1213 16.9029 19.4103C14.7041 21.3816 9.24495 22.6706 5.90881 20.3201C3.63417 18.7279 2.80013 15.3159 3.33088 10.0842C2.42103 12.0556 1.58699 13.9511 0.980419 15.9983C0.373848 17.9697 0.146385 20.0927 0.449671 22.2156C1.28371 23.8079 3.17924 24.9452 6.28791 25.476C10.913 26.31 15.3107 25.8551 18.2677 24.4145C20.239 23.4288 21.1489 22.4431 21.0731 21.4574C21.1489 20.0168 20.694 18.652 19.7083 17.2873C18.7984 15.9225 17.282 14.3302 15.159 12.4347Z" fill="url(#paint3_linear_3_28)"/>
<path fill-rule="evenodd" clip-rule="evenodd" d="M4.92303 9.09857C4.92303 11.5249 5.5296 13.7995 6.81856 15.9983C8.7141 19.2586 10.9129 22.519 14.2491 25.1727C16.4479 26.9924 18.2676 27.5232 19.5566 26.9166C18.4951 28.8879 17.2819 29.7978 16.0688 29.7978C14.2491 29.722 11.9744 28.9638 8.41081 24.6419C5.98453 21.7607 4.39228 19.0312 3.48242 16.4532C3.63406 15.4676 3.78571 14.4061 3.93735 13.4204C4.16481 12.4347 4.4681 10.9941 4.92303 9.09857Z" fill="url(#paint4_linear_3_28)"/>
<path fill-rule="evenodd" clip-rule="evenodd" d="M10.6097 12.4347C10.8372 14.4061 11.5954 17.5905 10.6097 19.6377C9.62404 21.7607 5.15058 25.5518 6.36372 28.8879C7.57687 32.2241 10.6097 31.4659 12.5053 29.9494C14.4008 28.433 15.3865 25.9309 15.6139 24.1112C15.8414 22.3673 15.0832 18.9553 14.8557 15.9983C14.7041 14.0269 14.7799 12.3589 15.159 10.9183L14.5524 10.1601L11.1405 9.17438C10.6855 10.0084 10.4581 11.0699 10.6097 12.4347Z" fill="url(#paint5_linear_3_28)"/>
<path fill-rule="evenodd" clip-rule="evenodd" d="M11.8228 2.65375C10.6855 3.10868 9.69981 4.01853 8.71414 5.45914C7.19771 7.50632 6.43949 8.79528 7.04606 12.8896C7.42517 15.6192 7.65264 18.1213 7.8801 20.4718L12.6568 6.59646C12.5052 5.91407 12.3536 5.23167 12.2019 4.70092C11.9745 4.01853 11.8986 3.41196 11.8228 2.65375Z" fill="url(#paint6_linear_3_28)"/>
<path fill-rule="evenodd" clip-rule="evenodd" d="M12.5809 6.52063C11.3678 7.20302 10.4579 8.71945 9.77552 10.8424C9.09313 13.0413 8.48656 16.0741 7.95581 20.0168C8.71402 17.5147 9.16895 15.695 9.39642 14.5577C9.77552 12.8896 9.85134 10.4633 10.837 8.87109C11.4436 7.80959 12.0502 7.05138 12.5809 6.52063Z" fill="white" fill-opacity="0.316"/>
<path fill-rule="evenodd" clip-rule="evenodd" d="M6.89429 30.0253C8.86564 30.3286 9.92714 30.556 10.003 30.7835C10.1546 31.0868 9.7755 31.3901 8.63818 31.2384C7.95579 31.0868 7.34922 30.7077 6.89429 30.0253Z" fill="white"/>
<path fill-rule="evenodd" clip-rule="evenodd" d="M7.95594 2.65375C6.89445 3.94271 5.90877 5.38332 5.07473 6.82392C4.2407 8.26453 3.70995 9.40185 3.33084 10.0842C3.25502 10.615 3.1792 11.449 3.1792 12.5105C3.1792 13.572 3.25502 14.7093 3.48248 15.9983C3.63413 13.4962 4.08905 10.9941 4.92309 8.64364C5.6813 6.29317 6.7428 4.246 7.95594 2.65375Z" fill="#EDEDED" fill-opacity="0.603"/>
<defs>
<linearGradient id="paint0_linear_3_28" x1="10.9721" y1="2.41747" x2="9.85883" y2="32.0336" gradientUnits="userSpaceOnUse">
<stop stop-color="#D9D8DC"/>
<stop offset="1" stop-color="white" stop-opacity="0.385"/>
</linearGradient>
<linearGradient id="paint1_linear_3_28" x1="10.5668" y1="1.92442" x2="-1.06386" y2="27.4149" gradientUnits="userSpaceOnUse">
<stop stop-color="white" stop-opacity="0.672"/>
<stop offset="1" stop-color="#838383"/>
</linearGradient>
<linearGradient id="paint2_linear_3_28" x1="12.2031" y1="10.6768" x2="12.2031" y2="31.1811" gradientUnits="userSpaceOnUse">
<stop stop-color="#939393" stop-opacity="0.762"/>
<stop offset="1" stop-color="#B7B4B4" stop-opacity="0.278"/>
</linearGradient>
<linearGradient id="paint3_linear_3_28" x1="4.55" y1="11.2639" x2="9.76993" y2="25.0905" gradientUnits="userSpaceOnUse">
<stop stop-color="white" stop-opacity="0.46"/>
<stop offset="1" stop-color="white" stop-opacity="0.54"/>
</linearGradient>
<linearGradient id="paint4_linear_3_28" x1="16.3484" y1="29.0899" x2="1.99614" y2="17.2024" gradientUnits="userSpaceOnUse">
<stop stop-color="#463D49" stop-opacity="0.331"/>
<stop offset="1" stop-color="white" stop-opacity="0.821"/>
</linearGradient>
<linearGradient id="paint5_linear_3_28" x1="12.7956" y1="10.447" x2="2.6737" y2="25.8486" gradientUnits="userSpaceOnUse">
<stop stop-color="#715383" stop-opacity="0.145"/>
<stop offset="1" stop-color="#F4F4F4" stop-opacity="0.234"/>
</linearGradient>
<linearGradient id="paint6_linear_3_28" x1="14.4762" y1="14.2549" x2="7.3081" y2="13.8174" gradientUnits="userSpaceOnUse">
<stop stop-color="#A5A1A8" stop-opacity="0.356"/>
<stop offset="1" stop-color="white" stop-opacity="0.582"/>
</linearGradient>
</defs>
</svg>
