<svg xmlns="http://www.w3.org/2000/svg" width="22" height="32" viewBox="0 0 22 32" fill="none">
  <g clip-path="url(#clip0_1_252)">
    <mask id="mask0_1_252" style="mask-type:luminance" maskUnits="userSpaceOnUse" x="0" y="0" width="22" height="32">
      <path d="M21.5763 0H0.0412598V32H21.5763V0Z" fill="white"/>
    </mask>
    <g mask="url(#mask0_1_252)">
      <path d="M10.7322 16.0058C10.7322 13.0897 13.1186 10.7136 16.0744 10.7136C19.0181 10.7136 21.4165 13.0777 21.4165 16.0058C21.4165 18.9218 19.0301 21.298 16.0744 21.298C13.1307 21.298 10.7322 18.9218 10.7322 16.0058Z" fill="white" fill-opacity="0.7"/>
      <path d="M0.0596924 26.5783C0.0596924 23.6621 2.4461 21.2861 5.40186 21.2861H10.744V26.5783C10.744 29.4943 8.35762 31.8705 5.40186 31.8705C2.4461 31.8705 0.0596924 29.5063 0.0596924 26.5783Z" fill="white"/>
      <path d="M10.7322 0.141639V10.7139H16.0744C19.0181 10.7139 21.4165 8.34987 21.4165 5.42179C21.4165 2.50571 19.0301 0.129639 16.0744 0.129639H10.7322V0.141639Z" fill="white" fill-opacity="0.9"/>
      <path d="M0.0596924 5.43375C0.0596924 8.34983 2.4461 10.7259 5.40186 10.7259H10.744V0.141602H5.40186C2.4461 0.141602 0.0596924 2.50567 0.0596924 5.43375Z" fill="white" fill-opacity="0.9"/>
      <path d="M0.0596924 16.0058C0.0596924 18.9218 2.4461 21.298 5.40186 21.298H10.744V10.7136H5.40186C2.4461 10.7136 0.0596924 13.0897 0.0596924 16.0058Z" fill="white" fill-opacity="0.8"/>
    </g>
  </g>
  <defs>
    <clipPath id="clip0_1_252">
      <rect width="21.6" height="32" fill="white"/>
    </clipPath>
  </defs>
</svg>