<svg width="24" height="32" viewBox="0 0 24 32" fill="none" xmlns="http://www.w3.org/2000/svg">
<g clip-path="url(#clip0_1_262)">
<mask id="mask0_1_262" style="mask-type:luminance" maskUnits="userSpaceOnUse" x="0" y="0" width="24" height="32">
<path d="M23.328 0H0.0319824V32H23.328V0Z" fill="white"/>
</mask>
<g mask="url(#mask0_1_262)">
<path d="M0.866638 20.8173L4.01991 0.617165C4.04253 0.467324 4.11205 0.328415 4.21856 0.220226C4.32508 0.112036 4.46316 0.040087 4.61312 0.0146279C4.76309 -0.0108313 4.9173 0.0114983 5.05378 0.0784355C5.19026 0.145373 5.30205 0.253503 5.37322 0.387421L8.76383 6.7233L0.866638 20.8173ZM23.2583 25.7203L20.2583 7.12834C20.2377 6.99695 20.1809 6.87384 20.0941 6.77277C20.0074 6.67172 19.8941 6.59666 19.7669 6.55602C19.6399 6.51538 19.5039 6.51074 19.3743 6.54263C19.2447 6.5745 19.1265 6.64167 19.033 6.73658L0.101318 25.7216L10.5758 31.6007C10.8991 31.7816 11.2636 31.8767 11.6345 31.8767C12.0053 31.8767 12.3698 31.7816 12.6931 31.6007L23.2583 25.7203ZM14.7464 9.49616L12.3198 4.87207C12.2585 4.75578 12.1665 4.6584 12.0537 4.59045C11.9409 4.5225 11.8116 4.48658 11.6798 4.48658C11.548 4.48658 11.4186 4.5225 11.3058 4.59045C11.193 4.6584 11.101 4.75578 11.0398 4.87207L0.386646 23.8877L14.7464 9.49616Z" fill="white" fill-opacity="0.8"/>
</g>
</g>
<defs>
<clipPath id="clip0_1_262">
<rect width="23.36" height="32" fill="white"/>
</clipPath>
</defs>
</svg>
