<svg width="33" height="32" viewBox="0 0 33 32" fill="none" xmlns="http://www.w3.org/2000/svg">
<mask id="mask0_1_240" style="mask-type:luminance" maskUnits="userSpaceOnUse" x="0" y="0" width="33" height="32">
<path d="M32.106 0H0.00378418V32H32.106V0Z" fill="white"/>
</mask>
<g mask="url(#mask0_1_240)">
<path d="M31.3501 14.5509L17.401 0.602504C16.5981 -0.200835 15.2952 -0.200835 14.4913 0.602504L11.5947 3.49912L15.2692 7.17362C16.1231 6.88507 17.1023 7.07864 17.7829 7.7593C18.4669 8.44434 18.6591 9.43187 18.3636 10.2885L21.9047 13.8298C22.7615 13.5347 23.7501 13.7256 24.4343 14.411C25.3906 15.367 25.3906 16.9165 24.4343 17.873C23.4778 18.8298 21.9284 18.8298 20.9712 17.873C20.2519 17.153 20.0741 16.0965 20.4383 15.2103L17.1359 11.9078L17.1356 20.5986C17.3749 20.717 17.5935 20.8733 17.7829 21.0616C18.7392 22.0174 18.7392 23.567 17.7829 24.5243C16.8264 25.4806 15.2762 25.4806 14.321 24.5243C13.3647 23.567 13.3647 22.0176 14.321 21.0616C14.5502 20.8323 14.8225 20.6507 15.1223 20.5274V11.7557C14.8221 11.6331 14.5496 11.4514 14.321 11.2214C13.5964 10.4978 13.4222 9.43462 13.7935 8.54493L10.1713 4.92234L0.606571 14.4864C-0.197145 15.2905 -0.197145 16.5936 0.606571 17.397L14.556 31.3458C15.3591 32.1491 16.6618 32.1491 17.4658 31.3458L31.35 17.4618C32.1535 16.6581 32.1535 15.3543 31.35 14.5509" fill="white" fill-opacity="0.7"/>
</g>
</svg>
