<svg width="33" height="32" viewBox="0 0 33 32" fill="none" xmlns="http://www.w3.org/2000/svg">
<g clip-path="url(#clip0_1_236)">
<path d="M16.3838 0C7.33643 0 0 7.33514 0 16.3838C0 23.6227 4.69444 29.764 11.2043 31.9304C12.023 32.082 12.3237 31.575 12.3237 31.1422C12.3237 30.7516 12.3084 29.4608 12.3015 28.0918C7.74337 29.0829 6.78158 26.1588 6.78158 26.1588C6.03631 24.265 4.96248 23.7616 4.96248 23.7616C3.47605 22.7447 5.07453 22.7655 5.07453 22.7655C6.71978 22.8811 7.58609 24.4539 7.58609 24.4539C9.04734 26.9586 11.4188 26.2344 12.3538 25.8159C12.5008 24.7569 12.9254 24.0342 13.3939 23.6251C9.75496 23.2107 5.9294 21.8059 5.9294 15.5281C5.9294 13.7395 6.56944 12.2778 7.61757 11.1305C7.44745 10.7178 6.88669 9.05145 7.77626 6.79469C7.77626 6.79469 9.15206 6.35434 12.283 8.47412C13.5898 8.11099 14.9914 7.92904 16.3838 7.92288C17.7761 7.92904 19.1788 8.11099 20.4882 8.47412C23.6153 6.35434 24.9892 6.79469 24.9892 6.79469C25.881 9.05145 25.32 10.7178 25.1498 11.1305C26.2003 12.2778 26.8359 13.7393 26.8359 15.5281C26.8359 21.8208 23.0032 23.2065 19.355 23.612C19.9426 24.1204 20.4662 25.1176 20.4662 26.646C20.4662 28.8381 20.4472 30.6025 20.4472 31.1422C20.4472 31.5782 20.7421 32.0891 21.5727 31.9282C28.0789 29.7593 32.7674 23.6202 32.7674 16.3838C32.7674 7.33514 25.432 0 16.3838 0Z" fill="white" fill-opacity="0.8"/>
<path d="M6.13633 23.3391C6.10035 23.4204 5.97211 23.4449 5.85557 23.3891C5.73671 23.3356 5.66989 23.2246 5.70844 23.1429C5.74377 23.0591 5.87201 23.0357 5.99061 23.092C6.10973 23.1453 6.17757 23.2574 6.13633 23.3391ZM6.94225 24.0582C6.86412 24.1306 6.71134 24.097 6.60765 23.9825C6.50048 23.8682 6.48044 23.7156 6.55972 23.642C6.64028 23.5696 6.78844 23.6034 6.89586 23.7178C7.00303 23.8333 7.02384 23.985 6.94212 24.0583M7.49516 24.9782C7.39468 25.048 7.23046 24.9826 7.12908 24.8368C7.02873 24.6913 7.02873 24.5165 7.13126 24.4465C7.23303 24.3764 7.39468 24.4394 7.49748 24.584C7.5977 24.7321 7.5977 24.9069 7.49503 24.9783M8.43009 26.0438C8.34028 26.1427 8.14907 26.1163 8.00901 25.9811C7.86587 25.849 7.82591 25.6615 7.91598 25.5625C8.00683 25.4633 8.19919 25.4911 8.34027 25.6252C8.48252 25.757 8.52582 25.9459 8.43009 26.0438ZM9.63846 26.4036C9.59901 26.5318 9.41475 26.5902 9.2292 26.5357C9.04391 26.4795 8.92261 26.3292 8.96001 26.1995C8.99856 26.0704 9.18359 26.0096 9.37055 26.068C9.55558 26.1238 9.67701 26.273 9.63846 26.4036ZM11.0139 26.5561C11.0185 26.6913 10.8611 26.8033 10.6663 26.8058C10.4703 26.81 10.3119 26.7007 10.3098 26.5678C10.3098 26.4313 10.4637 26.3203 10.6595 26.3171C10.8543 26.3133 11.0139 26.4218 11.0139 26.5561ZM12.3649 26.5043C12.3883 26.6362 12.2528 26.7716 12.0594 26.8076C11.8693 26.8423 11.6932 26.7609 11.6689 26.6302C11.6453 26.4951 11.7833 26.3598 11.9731 26.3247C12.1669 26.291 12.3402 26.3703 12.3649 26.5043Z" fill="white" fill-opacity="0.8"/>
</g>
<defs>
<clipPath id="clip0_1_236">
<rect width="32.8947" height="32" fill="white"/>
</clipPath>
</defs>
</svg>
