<svg width="85" height="32" viewBox="0 0 85 32" fill="none" xmlns="http://www.w3.org/2000/svg">
<g clip-path="url(#clip0_1_268)">
<path fill-rule="evenodd" clip-rule="evenodd" d="M6.64616 9.88733C6.48206 9.88733 6.44103 9.80528 6.52308 9.68221L7.38462 8.57451C7.46667 8.45144 7.6718 8.36938 7.8359 8.36938H22.4821C22.6462 8.36938 22.6872 8.49246 22.6051 8.61554L21.9077 9.68221C21.8256 9.80528 21.6205 9.92836 21.4974 9.92836L6.64616 9.88733Z" fill="white"/>
<path fill-rule="evenodd" clip-rule="evenodd" d="M0.451334 13.6615C0.287231 13.6615 0.246206 13.5795 0.328257 13.4564L1.1898 12.3487C1.27185 12.2256 1.47697 12.1436 1.64108 12.1436H20.3488C20.5129 12.1436 20.5949 12.2666 20.5539 12.3897L20.2257 13.3743C20.1847 13.5384 20.0206 13.6205 19.8565 13.6205L0.451334 13.6615Z" fill="white"/>
<path fill-rule="evenodd" clip-rule="evenodd" d="M10.3796 17.4359C10.2155 17.4359 10.1744 17.3128 10.2565 17.1898L10.8308 16.1641C10.9129 16.041 11.077 15.918 11.2411 15.918H19.4462C19.6103 15.918 19.6924 16.041 19.6924 16.2051L19.6103 17.1898C19.6103 17.3539 19.4462 17.4769 19.3231 17.4769L10.3796 17.4359Z" fill="white"/>
<path fill-rule="evenodd" clip-rule="evenodd" d="M52.9642 9.14879C50.3796 9.8052 48.6154 10.2975 46.0719 10.9539C45.4565 11.118 45.4154 11.1591 44.8821 10.5437C44.2667 9.84623 43.8154 9.39495 42.9539 8.98469C40.3693 7.7129 37.8667 8.08213 35.5283 9.60008C32.7385 11.4052 31.3026 14.0719 31.3437 17.3949C31.3847 20.677 33.6411 23.3847 36.8821 23.836C39.6719 24.2052 42.0103 23.2206 43.8565 21.1283C44.2257 20.677 44.5539 20.1847 44.9642 19.6103C43.4872 19.6103 41.6411 19.6103 37.0462 19.6103C36.1847 19.6103 35.9796 19.077 36.2667 18.3796C36.8001 17.1078 37.7847 14.9744 38.359 13.9078C38.4821 13.6616 38.7693 13.2514 39.3847 13.2514H54.318C54.236 14.3591 54.236 15.4667 54.0719 16.5744C53.6206 19.5283 52.5129 22.236 50.7078 24.6155C47.7539 28.5129 43.8975 30.9334 39.0154 31.5898C34.9949 32.1232 31.2616 31.3437 27.9796 28.8821C24.9437 26.5847 23.2206 23.5488 22.7693 19.7744C22.236 15.3026 23.5488 11.2821 26.2565 7.75392C29.1693 3.93854 33.0257 1.51803 37.7437 0.656487C41.6001 -0.040949 45.2924 0.410333 48.6154 2.66674C50.7898 4.10264 52.3488 6.07187 53.3744 8.45136C53.6206 8.82059 53.4565 9.02572 52.9642 9.14879Z" fill="#BBBBBB"/>
<path d="M66.5436 31.836C62.8103 31.7539 59.4052 30.6872 56.5334 28.2257C54.1129 26.1334 52.5949 23.4667 52.1026 20.3078C51.3641 15.6719 52.6359 11.5693 55.4257 7.91802C58.4206 3.97956 62.0308 1.92827 66.9129 1.06674C71.0975 0.328274 75.0359 0.73853 78.6052 3.15904C81.8462 5.37443 83.8565 8.3693 84.3898 12.3078C85.0872 17.8462 83.4872 22.359 79.6718 26.2155C76.9641 28.9642 73.6411 30.6872 69.8257 31.4667C68.718 31.6719 67.6103 31.7129 66.5436 31.836ZM76.3077 15.2616C76.2667 14.7283 76.2667 14.318 76.1847 13.9078C75.4462 9.84622 71.7129 7.54879 67.8154 8.45135C64 9.31289 61.5385 11.7334 60.6359 15.5898C59.8975 18.7898 61.4565 22.0308 64.4103 23.3437C66.6667 24.3283 68.9231 24.2052 71.0975 23.0975C74.3385 21.4155 76.1026 18.7898 76.3077 15.2616Z" fill="#BBBBBB"/>
</g>
<defs>
<clipPath id="clip0_1_268">
<rect width="84.9231" height="32" fill="white"/>
</clipPath>
</defs>
</svg>
