<svg width="33" height="32" viewBox="0 0 33 32" fill="none" xmlns="http://www.w3.org/2000/svg">
<g clip-path="url(#clip0_1_180)">
<mask id="mask0_1_180" style="mask-type:luminance" maskUnits="userSpaceOnUse" x="0" y="0" width="33" height="32">
<path d="M32.1279 0H0.12793V32H32.1279V0Z" fill="white"/>
</mask>
<g mask="url(#mask0_1_180)">
<path d="M0.12793 0H32.128V32H0.12793V0ZM29.5065 24.368C29.2732 22.908 28.3225 21.6813 25.5025 20.5373C24.5212 20.0773 23.4305 19.7573 23.1065 19.0173C22.9852 18.5773 22.9665 18.3373 23.0452 18.0773C23.2452 17.216 24.2652 16.9573 25.0652 17.1973C25.5852 17.3573 26.0652 17.7573 26.3665 18.3973C27.7452 17.496 27.7452 17.496 28.7065 16.8973C28.3465 16.3373 28.168 16.096 27.9252 15.8573C27.0852 14.9173 25.9665 14.4373 24.1465 14.4787L23.2065 14.5973C22.3052 14.8173 21.4465 15.2973 20.9265 15.9373C19.4065 17.6587 19.8452 20.6587 21.6852 21.8987C23.5052 23.2587 26.1665 23.5573 26.5065 24.8387C26.8265 26.3987 25.3465 26.8987 23.8852 26.7187C22.804 26.4787 22.2052 25.9373 21.5452 24.9373L19.1052 26.3387C19.3852 26.9787 19.7052 27.2573 20.1852 27.8173C22.5052 30.1587 28.3052 30.0387 29.3465 26.4787C29.3852 26.3587 29.6665 25.5387 29.4452 24.2787L29.5065 24.368ZM17.5292 14.708H14.5319C14.5319 17.292 14.5199 19.86 14.5199 22.448C14.5199 24.0907 14.6039 25.5987 14.3359 26.0627C13.8959 26.9813 12.7626 26.864 12.2479 26.7027C11.7199 26.4413 11.4519 26.0813 11.1413 25.5627C11.0573 25.4227 10.9946 25.3013 10.9719 25.3013L8.5386 26.8013C8.94527 27.6413 9.5386 28.364 10.3039 28.824C11.4439 29.504 12.9759 29.724 14.5799 29.364C15.6239 29.0627 16.524 28.4427 16.9945 27.4827C17.6745 26.2427 17.5305 24.7227 17.524 23.0213C17.54 20.2827 17.524 17.5427 17.524 14.7827L17.5292 14.708Z" fill="white" fill-opacity="0.8"/>
</g>
</g>
<defs>
<clipPath id="clip0_1_180">
<rect width="32.16" height="32" fill="white"/>
</clipPath>
</defs>
</svg>
