
<svg width="29" height="32" viewBox="0 0 29 32" fill="none" xmlns="http://www.w3.org/2000/svg">
<g clip-path="url(#clip0_5_2)">
<path d="M15.5676 1.68042L16.3477 3.14577C16.5231 3.41619 16.7132 3.65554 16.937 3.87845C17.5932 4.52646 18.2048 5.21808 18.7678 5.94858C20.0897 7.68435 20.9813 9.61197 21.6181 11.6967C21.9999 12.9702 22.2073 14.2766 22.2229 15.5976C22.2868 19.547 20.9329 22.9381 18.2032 25.7564C17.7592 26.2034 17.2795 26.6134 16.7689 26.9824C16.4985 26.9824 16.3706 26.7751 16.2591 26.5841C16.0562 26.2301 15.9211 25.8412 15.8608 25.4376C15.7649 24.9598 15.7018 24.482 15.7329 23.9887V23.7658C15.711 23.7183 15.4725 1.79279 15.5676 1.68042Z" fill="#BBBBBB"/>
<path d="M15.5677 1.63202C15.5358 1.56807 15.5038 1.61648 15.4718 1.64755C15.4874 1.96729 15.3759 2.25232 15.2014 2.52457C15.0096 2.79498 14.7556 3.00236 14.5007 3.22527C13.0847 4.45127 11.9701 5.93215 11.0776 7.58844C9.88996 9.81753 9.27787 12.2065 9.10429 14.7215C9.02481 15.6287 9.39115 18.8298 9.6771 19.7534C10.4573 22.2054 11.8587 24.26 13.6739 26.0433C14.1197 26.4727 14.5966 26.871 15.09 27.2538C15.2334 27.2538 15.2489 27.1259 15.2818 27.0309C15.3447 26.8276 15.3926 26.6199 15.4252 26.4096L15.745 24.0216L15.5677 1.63202Z" fill="white"/>
<path d="M16.3478 27.9525C16.3798 27.5871 16.5552 27.2838 16.7461 26.9814C16.5543 26.9019 16.4118 26.7439 16.3003 26.5675C16.2042 26.4006 16.1247 26.2247 16.0628 26.0422C15.8399 25.3735 15.7924 24.6719 15.7284 23.9886V23.5747C15.6489 23.6387 15.6325 24.1795 15.6325 24.2599C15.586 24.9821 15.4902 25.7003 15.3456 26.4095C15.2981 26.6963 15.2662 26.9823 15.0898 27.2372C15.0898 27.2692 15.0898 27.3011 15.1054 27.3486C15.3922 28.1928 15.4708 29.0524 15.5192 29.9285V30.2483C15.5192 30.6301 15.5037 30.5498 15.8207 30.6777C15.9486 30.7252 16.0911 30.7416 16.219 30.8366C16.3149 30.8366 16.3305 30.7571 16.3305 30.6932L16.283 30.1679V28.7025C16.2674 28.4467 16.3149 28.1928 16.3469 27.9534L16.3478 27.9525Z" fill="#C2BFBF"/>
</g>
<defs>
<clipPath id="clip0_5_2">
<rect width="29" height="32" fill="white"/>
</clipPath>
</defs>
</svg>
