<svg width="33" height="32" viewBox="0 0 33 32" fill="none" xmlns="http://www.w3.org/2000/svg">
<g clip-path="url(#clip0_1_186)">
<mask id="mask0_1_186" style="mask-type:luminance" maskUnits="userSpaceOnUse" x="0" y="0" width="33" height="32">
<path d="M32.1279 0H0.12793V32H32.1279V0Z" fill="white"/>
</mask>
<g mask="url(#mask0_1_186)">
<path d="M15.5577 0C15.3226 0 15.1446 0.00173333 15.0798 0.00893333C15.011 0.016 14.7919 0.0369333 14.595 0.0526667C10.0499 0.4624 5.79273 2.9144 3.09633 6.68307C1.59486 8.77867 0.634596 11.1555 0.27193 13.6733C0.143663 14.552 0.12793 14.8116 0.12793 16.0032C0.12793 17.1947 0.14393 17.4544 0.27193 18.3333C1.14126 24.3413 5.4174 29.3891 11.2169 31.2594C12.2554 31.5941 13.3502 31.8224 14.5951 31.96C15.0799 32.0133 17.1756 32.0133 17.6604 31.96C19.8094 31.7222 21.63 31.1907 23.4254 30.2742C23.7008 30.1334 23.7539 30.096 23.7164 30.0645C23.6913 30.0461 22.5182 28.4728 21.1107 26.5712L18.5521 23.1152L15.3458 18.3707C13.5817 15.7623 12.1302 13.6295 12.1177 13.6295C12.1051 13.626 12.0927 15.7344 12.0863 18.3082C12.0774 22.815 12.0739 22.9965 12.0175 23.1029C11.9362 23.2562 11.8735 23.3186 11.7423 23.3874C11.6423 23.4371 11.5546 23.4467 11.0823 23.4467H10.541L10.3973 23.356C10.3081 23.3002 10.2357 23.2213 10.1877 23.1277L10.1219 22.9869L10.129 16.7163L10.1379 10.4424L10.2347 10.3204C10.2849 10.2547 10.3913 10.1704 10.4662 10.1297C10.5945 10.0671 10.6446 10.0608 11.1857 10.0608C11.8239 10.0608 11.9302 10.0857 12.0959 10.2671C12.143 10.3173 13.879 12.932 15.9559 16.0814C18.0588 19.2693 20.163 22.4562 22.2684 25.6422L24.802 29.4798L24.93 29.3955C26.0657 28.6573 27.2667 27.6064 28.2177 26.5118C30.2416 24.188 31.546 21.3546 31.984 18.3331C32.1121 17.4544 32.1276 17.1946 32.1276 16.0032C32.1276 14.8116 32.1116 14.552 31.984 13.6731C31.1144 7.66507 26.8384 2.6172 21.039 0.747067C20.0161 0.415467 18.9275 0.187067 17.7076 0.0494667C17.4824 0.026 16.263 0.000666667 15.5579 0.000133333L15.5577 0ZM20.9824 9.62267C21.4454 9.62267 21.5265 9.62973 21.6299 9.68533C21.7801 9.76027 21.9019 9.90427 21.9459 10.0543C21.9707 10.1356 21.9771 11.8747 21.9707 15.7935L21.9617 21.4168L20.9704 19.8968L19.9755 18.3768V14.2888C19.9755 11.6461 19.988 10.1604 20.0067 10.0885C20.0568 9.91347 20.1662 9.77573 20.3164 9.69453C20.4446 9.62867 20.4915 9.62253 20.9827 9.62253L20.9824 9.62267Z" fill="white" fill-opacity="0.8"/>
</g>
</g>
<defs>
<clipPath id="clip0_1_186">
<rect width="32.16" height="32" fill="white"/>
</clipPath>
</defs>
</svg>
