<svg xmlns="http://www.w3.org/2000/svg" width="33" height="33" viewBox="0 0 33 33" fill="none">
  <g clip-path="url(#clip0_1_280)">
    <path d="M15.6049 32.1712C15.9755 32.3876 16.3953 32.5 16.8181 32.5L16.8169 32.4938C17.2453 32.4938 17.6651 32.3824 18.0357 32.165L29.5993 25.3938C30.3463 24.9534 30.8125 24.1346 30.8125 23.257V9.7259C30.8125 8.84536 30.3463 8.02646 29.5993 7.58912L18.0357 0.814805C17.3091 0.395065 16.3363 0.395065 15.6037 0.814805L4.02562 7.58618C3.27574 8.02058 2.8125 8.84242 2.8125 9.72296V23.254C2.8125 24.1316 3.27574 24.9534 4.02562 25.3938L7.05984 27.1666C8.53062 27.9004 9.05756 27.9004 9.72636 27.9004C11.9007 27.9004 13.1515 26.5648 13.1515 24.2402V10.8794C13.1515 10.6886 13.0009 10.5419 12.8185 10.5419H11.3535C11.1653 10.5419 11.0177 10.6886 11.0177 10.8794V24.2344C11.0177 25.2676 9.96668 26.2948 8.2469 25.423L5.07948 23.568C4.96946 23.5064 4.89998 23.3832 4.89998 23.254V9.72296C4.89998 9.59382 4.9712 9.4676 5.08324 9.40304L16.6429 2.64046C16.7499 2.57588 16.8919 2.57588 16.9989 2.64046L28.5609 9.40304C28.6703 9.47054 28.7397 9.59088 28.7397 9.7259V23.257C28.7397 23.386 28.6703 23.5122 28.5631 23.574L16.9967 30.3424C16.8973 30.401 16.7453 30.401 16.6383 30.3424L13.6717 28.5578C13.5835 28.505 13.4705 28.4874 13.3843 28.5372C12.5634 29.0098 12.4074 29.0714 11.6384 29.3444C11.4482 29.411 11.1668 29.5266 11.7435 29.8536L15.6049 32.1712Z" fill="#BBBBBB"/>
    <path d="M14.6661 18.4792C14.6661 20.1457 15.5615 22.1329 19.8316 22.1329L19.8174 22.1446C22.9101 22.1446 24.6836 20.9088 24.6836 18.7542C24.6836 16.617 23.2594 16.0473 20.2595 15.6436C17.2305 15.2375 16.9227 15.027 16.9227 14.3063C16.9227 13.712 17.1841 12.9195 19.4291 12.9195C21.4347 12.9195 22.1723 13.3579 22.4777 14.7273C22.5046 14.8561 22.6195 14.9503 22.7513 14.9503H24.0191C24.0974 14.9503 24.173 14.9157 24.2268 14.8586C24.2805 14.7992 24.3099 14.7199 24.3026 14.6382C24.1072 12.2756 22.5584 11.176 19.4338 11.176C16.6515 11.176 14.9903 12.3648 14.9903 14.3608C14.9903 16.5279 16.6417 17.1246 19.3142 17.3921C22.5095 17.7091 22.7587 18.1822 22.7587 18.8187C22.7587 19.9243 21.8841 20.3955 19.8272 20.3955C17.2451 20.3955 16.6783 19.7387 16.4878 18.4365C16.4659 18.2971 16.3486 18.1943 16.2094 18.1943H14.9488C14.7922 18.1943 14.6661 18.3205 14.6661 18.4792Z" fill="#BBBBBB"/>
  </g>
  <defs>
    <clipPath id="clip0_1_280">
      <rect width="32" height="32" fill="white" transform="translate(0.5 0.5)"/>
    </clipPath>
  </defs>
</svg>