<svg width="37" height="32" viewBox="0 0 37 32" fill="none" xmlns="http://www.w3.org/2000/svg">
<g clip-path="url(#clip0_1_199)">
<mask id="mask0_1_199" style="mask-type:luminance" maskUnits="userSpaceOnUse" x="0" y="0" width="37" height="32">
<path d="M36.4931 0H0.129395V32H36.4931V0Z" fill="white"/>
</mask>
<g mask="url(#mask0_1_199)">
<path d="M29.8311 10.4039C29.4475 10.276 29.064 10.1553 28.6805 10.0417C28.7445 9.7789 28.8013 9.51611 28.8581 9.25333C29.7317 5.02037 29.1563 1.61839 27.2175 0.496227C25.3496 -0.576217 22.3027 0.538839 19.2203 3.2235C18.9149 3.48629 18.6167 3.76326 18.3325 4.04026C18.1408 3.8556 17.9419 3.67094 17.7431 3.49339C14.5115 0.624066 11.2729 -0.583319 9.33394 0.545942C7.47314 1.62549 6.91917 4.82861 7.70042 8.83429C7.77855 9.23202 7.86376 9.62264 7.9632 10.0204C7.50866 10.1482 7.06122 10.2903 6.64218 10.4394C2.84957 11.7533 0.129395 13.8272 0.129395 15.9721C0.129395 18.1879 3.02712 20.411 6.96888 21.7604C7.28848 21.867 7.60808 21.9735 7.93479 22.0659C7.82826 22.4919 7.73592 22.911 7.65071 23.3443C6.90496 27.286 7.48735 30.411 9.34815 31.4835C11.2658 32.5915 14.4902 31.455 17.6295 28.7065C17.8779 28.4863 18.1266 28.259 18.3751 28.0175C18.6877 28.323 19.0143 28.6142 19.341 28.8982C22.3808 31.5118 25.3851 32.57 27.2387 31.4977C29.1563 30.3897 29.7815 27.0303 28.9717 22.9395C28.9079 22.627 28.8368 22.3073 28.7586 21.9806C28.9859 21.9167 29.2061 21.8457 29.4263 21.7747C33.5243 20.4182 36.493 18.2235 36.493 15.9721C36.493 13.8201 33.6947 11.732 29.8311 10.4039ZM20.2218 4.37406C22.8637 2.07293 25.3282 1.17094 26.4504 1.81725C27.6507 2.50616 28.1123 5.29026 27.3595 8.94794C27.3098 9.18941 27.26 9.42378 27.1962 9.65816C25.6194 9.30304 24.0215 9.04736 22.4163 8.90531C21.493 7.58429 20.4845 6.3201 19.3907 5.13402C19.6677 4.87123 19.9376 4.62264 20.2218 4.37406ZM12.0044 19.6582C12.3666 20.2761 12.7359 20.894 13.1265 21.4977C12.0186 21.3769 10.9177 21.1993 9.83109 20.9649C10.1436 19.9422 10.5342 18.8839 10.9888 17.8044C11.3155 18.4295 11.6493 19.0473 12.0044 19.6582ZM9.8524 11.1141C10.8751 10.8868 11.9618 10.7022 13.091 10.5601C12.7146 11.1496 12.3453 11.7533 11.9973 12.3641C11.6493 12.9678 11.3084 13.5857 10.9888 14.2107C10.5413 13.1525 10.1649 12.1155 9.8524 11.1141ZM11.7984 16.0076C12.2672 15.0275 12.7785 14.0687 13.3183 13.1241C13.8581 12.1795 14.4405 11.2633 15.0513 10.3613C16.1167 10.2832 17.2032 10.2405 18.3112 10.2405C19.4192 10.2405 20.513 10.2832 21.5712 10.3613C22.1749 11.2562 22.7501 12.1724 23.297 13.1099C23.8439 14.0474 24.3552 15.0062 24.8383 15.9792C24.3624 16.9593 23.8511 17.9252 23.3042 18.8769C22.7643 19.8215 22.189 20.7377 21.5853 21.6468C20.5271 21.7249 19.4263 21.7604 18.3112 21.7604C17.1962 21.7604 16.1167 21.7249 15.0726 21.6611C14.4547 20.759 13.8723 19.8358 13.3254 18.8911C12.7785 17.9465 12.2743 16.9878 11.7984 16.0076ZM24.6251 19.6439C24.9874 19.019 25.3282 18.3868 25.6621 17.7476C26.1167 18.7775 26.5143 19.8215 26.8624 20.894C25.7615 21.1425 24.6464 21.3343 23.5243 21.4622C23.9079 20.8655 24.2699 20.2548 24.6251 19.6439ZM25.6479 14.2107C25.3141 13.5857 24.9731 12.9607 24.6181 12.3499C24.2699 11.7462 23.9079 11.1496 23.5314 10.5601C24.6749 10.7022 25.7687 10.894 26.7914 11.1283C26.4647 12.1795 26.0811 13.2022 25.6479 14.2107ZM18.3255 6.22066C19.0712 7.03032 19.7743 7.88259 20.4277 8.76326C19.0215 8.69934 17.608 8.69934 16.2018 8.76326C16.8979 7.84707 17.6152 6.9948 18.3255 6.22066ZM10.0868 1.86696C11.28 1.17094 13.9291 2.16526 16.7203 4.63685C16.8979 4.7931 17.0754 4.96355 17.26 5.13402C16.1592 6.3201 15.1436 7.58429 14.2132 8.90531C12.6081 9.04736 11.0172 9.29594 9.44047 9.64395C9.34815 9.28173 9.27002 8.91242 9.19189 8.5431C8.52428 5.1056 8.96463 2.51327 10.0868 1.86696ZM8.34672 20.5886C8.04844 20.5033 7.75724 20.411 7.46604 20.3116C5.95325 19.8358 4.23452 19.0828 2.9916 18.0956C2.27428 17.5985 1.79133 16.8315 1.65639 15.9721C1.65639 14.6724 3.90071 13.0104 7.13933 11.8812C7.54416 11.7391 7.9561 11.6113 8.36804 11.4905C8.85098 13.0317 9.43336 14.5445 10.1081 16.0076C9.42628 17.4919 8.83679 19.026 8.34672 20.5886ZM16.628 27.5487C15.4561 28.6212 14.0996 29.4735 12.6223 30.0559C11.8339 30.4323 10.9249 30.4678 10.1152 30.1483C8.98592 29.4948 8.51717 26.9878 9.15639 23.6142C9.23452 23.2164 9.31973 22.8187 9.41917 22.4281C11.0101 22.7689 12.6152 23.0033 14.2416 23.1241C15.1791 24.4523 16.209 25.7235 17.3098 26.9167C17.0826 27.1369 16.8552 27.3499 16.628 27.5487ZM18.368 25.823C17.6435 25.0417 16.9192 24.1751 16.216 23.2447C16.8979 23.2732 17.601 23.2875 18.3112 23.2875C19.0427 23.2875 19.76 23.2732 20.4703 23.2377C19.8168 24.1396 19.1138 24.9991 18.368 25.823ZM27.6507 27.9535C27.5867 28.8201 27.1607 29.6297 26.4789 30.1766C25.3496 30.83 22.9419 29.9777 20.3424 27.7476C20.0442 27.4919 19.7459 27.215 19.4405 26.9308C20.5271 25.7307 21.5285 24.4593 22.4376 23.1241C24.064 22.9891 25.6834 22.7406 27.2815 22.3783C27.3523 22.6695 27.4163 22.9607 27.4731 23.2447C27.8211 24.7788 27.8779 26.3769 27.6507 27.9535ZM28.9434 20.3187C28.7445 20.3827 28.5456 20.4465 28.3397 20.5033C27.8424 18.955 27.2317 17.4422 26.5285 15.9721C27.2104 14.5232 27.7856 13.0317 28.2687 11.5048C28.6379 11.6113 28.993 11.7249 29.3339 11.8386C32.6435 12.9749 34.9661 14.6653 34.9661 15.9579C34.9661 17.3499 32.4874 19.1468 28.9434 20.3187ZM18.3112 19.2534C20.108 19.2534 21.564 17.7974 21.564 16.0004C21.564 14.2036 20.108 12.7476 18.3112 12.7476C16.5143 12.7476 15.0584 14.2036 15.0584 16.0004C15.0584 17.7974 16.5143 19.2534 18.3112 19.2534Z" fill="white" fill-opacity="0.8"/>
</g>
</g>
<defs>
<clipPath id="clip0_1_199">
<rect width="36.64" height="32" fill="white"/>
</clipPath>
</defs>
</svg>
