<svg width="55" height="32" viewBox="0 0 55 32" fill="none" xmlns="http://www.w3.org/2000/svg">
<mask id="mask0_1_214" style="mask-type:luminance" maskUnits="userSpaceOnUse" x="0" y="0" width="55" height="32">
<path d="M54.4132 0H0.0131836V32H54.4132V0Z" fill="white"/>
</mask>
<g mask="url(#mask0_1_214)">
<path d="M26.682 0C19.5709 0 15.1265 3.55555 13.3487 10.6667C16.0154 7.1111 19.1265 5.77778 22.682 6.66667C24.7109 7.17333 26.1597 8.64445 27.7665 10.2756C30.382 12.9289 33.4065 16 40.0154 16C47.1265 16 51.5709 12.4444 53.3487 5.33333C50.682 8.88888 47.5709 10.2222 44.0154 9.33333C41.9865 8.82667 40.5377 7.35555 38.9309 5.72445C36.3177 3.0711 33.2932 0 26.682 0ZM13.3487 16C6.2376 16 1.79316 19.5555 0.0153809 26.6667C2.68205 23.111 5.79316 21.7778 9.34871 22.6667C11.3776 23.1733 12.8265 24.6445 14.4332 26.2755C17.0487 28.929 20.0732 32 26.682 32C33.7932 32 38.2377 28.4445 40.0154 21.3333C37.3487 24.889 34.2377 26.2222 30.682 25.3333C28.6532 24.8267 27.2042 23.3555 25.5977 21.7245C22.9842 19.071 19.9597 16 13.3487 16Z" fill="white" fill-opacity="0.8"/>
</g>
</svg>
