<svg width="33" height="32" viewBox="0 0 33 32" fill="none" xmlns="http://www.w3.org/2000/svg">
<g clip-path="url(#clip0_1_220)">
<mask id="mask0_1_220" style="mask-type:luminance" maskUnits="userSpaceOnUse" x="0" y="0" width="33" height="32">
<path d="M32.0132 0H0.0131836V32H32.0132V0Z" fill="white"/>
</mask>
<g mask="url(#mask0_1_220)">
<path d="M1.51318 0C0.682516 0 0.0131836 0.669333 0.0131836 1.5V30.5C0.0131836 31.3307 0.682516 32 1.51318 32H30.5132C31.3439 32 32.0132 31.3307 32.0132 30.5V1.5C32.0132 0.669333 31.3439 0 30.5132 0H1.51318ZM24.6639 13C25.4799 13 26.2025 13.0493 26.8332 13.148C27.4281 13.2371 28.0117 13.3891 28.5745 13.6013V16.8787C28.3044 16.6918 28.0173 16.5307 27.7172 16.3973C27.4076 16.2581 27.0881 16.1422 26.7612 16.0507C26.142 15.8781 25.5026 15.7884 24.8599 15.784C24.4599 15.784 24.0959 15.8213 23.7679 15.8987C23.4756 15.9612 23.1951 16.0701 22.9372 16.2213C22.7105 16.36 22.5372 16.5267 22.4132 16.72C22.2885 16.9149 22.2236 17.1419 22.2265 17.3733C22.2265 17.6347 22.2972 17.8707 22.4345 18.0787C22.5732 18.2867 22.7705 18.484 23.0252 18.6707C23.2799 18.8573 23.5892 19.0387 23.9532 19.2173C24.3172 19.3973 24.7292 19.5827 25.1879 19.772C25.8145 20.0347 26.3772 20.3147 26.8759 20.6093C27.3745 20.9053 27.8025 21.24 28.1599 21.6133C28.5172 21.9853 28.7892 22.4107 28.9785 22.8893C29.1679 23.368 29.2639 23.924 29.2639 24.56C29.2639 25.436 29.0972 26.1733 28.7665 26.768C28.4434 27.3546 27.9797 27.8515 27.4172 28.2147C26.8108 28.5992 26.1386 28.8686 25.4345 29.0093C24.6799 29.1693 23.8839 29.2493 23.0479 29.2493C22.225 29.253 21.4037 29.1797 20.5945 29.0307C19.8945 28.9096 19.2154 28.6882 18.5785 28.3733V24.8667C19.7836 25.8922 21.3122 26.4589 22.8945 26.4667C23.3385 26.4667 23.7265 26.4267 24.0572 26.3467C24.3892 26.2667 24.6652 26.1547 24.8879 26.0133C25.1092 25.8693 25.2745 25.7013 25.3852 25.5067C25.5074 25.28 25.5631 25.0234 25.5457 24.7664C25.5282 24.5094 25.4383 24.2627 25.2865 24.0547C25.0884 23.7925 24.8461 23.5669 24.5705 23.388C24.2287 23.1614 23.8689 22.9634 23.4945 22.796C23.0508 22.5934 22.6033 22.3995 22.1519 22.2147C20.9279 21.704 20.0159 21.0787 19.4145 20.3413C18.8145 19.604 18.5132 18.712 18.5132 17.668C18.5132 16.8493 18.6772 16.1467 19.0052 15.5587C19.3332 14.9707 19.7785 14.4867 20.3439 14.1067C20.9418 13.7122 21.6057 13.4281 22.3039 13.268C23.0772 13.0857 23.8693 12.9957 24.6639 13ZM4.51318 13.2507H17.2639V16.1387H12.6879V29H9.06518V16.1387H4.51318V13.2507Z" fill="white" fill-opacity="0.8"/>
</g>
</g>
<defs>
<clipPath id="clip0_1_220">
<rect width="32.16" height="32" fill="white"/>
</clipPath>
</defs>
</svg>
